<svg xmlns="http://www.w3.org/2000/svg" width="512" height="512" viewBox="0 0 512 512"><path fill="#9AABB3" d="M325.813448,0 C390.554569,0 414.031263,6.74089481 437.699649,19.3988861 C461.368035,32.0568774 479.943123,50.6319651 492.601114,74.300351 C505.259105,97.9687368 512,121.445431 512,186.186552 L512,325.813448 C512,390.554569 505.259105,414.031263 492.601114,437.699649 C479.943123,461.368035 461.368035,479.943123 437.699649,492.601114 C414.031263,505.259105 390.554569,512 325.813448,512 L186.186552,512 C121.445431,512 97.9687368,505.259105 74.300351,492.601114 C50.6319651,479.943123 32.0568774,461.368035 19.3988861,437.699649 C6.74089481,414.031263 0,390.554569 0,325.813448 L0,186.186552 C0,121.445431 6.74089481,97.9687368 19.3988861,74.300351 C32.0568774,50.6319651 50.6319651,32.0568774 74.300351,19.3988861 C97.9687368,6.74089481 121.445431,0 186.186552,0 L325.813448,0 Z M327.538551,44.7449857 L183.607108,44.7449857 L181.076669,44.7601311 L178.59465,44.7790458 L176.160467,44.8055066 L173.773537,44.8395023 L171.433275,44.8810213 L169.898738,44.9128747 L168.384509,44.9480634 L166.150867,45.0070928 L164.686652,45.050605 L163.242141,45.0974407 L161.817159,45.1475966 L159.715925,45.2290482 L158.33901,45.2874896 L156.981019,45.3492394 L154.979135,45.4480598 L153.667696,45.5180656 L152.374575,45.591368 L150.468861,45.7074952 L149.220777,45.7890241 L147.990406,45.8738378 L146.17768,46.0072098 L144.990832,46.1002206 L143.82109,46.1965043 L142.668281,46.2960576 L141.532233,46.398877 L140.412771,46.5049593 L139.309723,46.614301 L138.222917,46.7268987 L137.152177,46.8427492 L136.097333,46.961849 L135.05821,47.0841948 L133.528625,47.2737922 L132.03344,47.4706741 L131.055473,47.60597 L130.092361,47.744495 L129.143933,47.8862457 L128.210014,48.0312188 L127.290433,48.1794109 L126.385015,48.3308186 L125.493587,48.4854385 L124.615977,48.6432673 L123.752012,48.8043016 L123.325092,48.8860198 C112.894804,50.9002014 105.574962,53.5230989 96.5845628,58.229755 L95.4020352,58.855605 C79.5312896,67.3433726 67.3433726,79.5312896 58.855605,95.4020352 L58.229755,96.5845628 C53.6254176,105.379519 51.0152251,112.57576 49.0182576,122.649217 L48.8043016,123.752012 L48.6432673,124.615977 L48.4854385,125.493587 L48.3308186,126.385015 L48.1794109,127.290433 L47.9583297,128.675171 L47.8149674,129.616322 L47.6748291,130.572071 L47.5379182,131.542589 L47.3386107,133.026437 L47.2097831,134.034636 L47.0841948,135.05821 L46.9018932,136.622779 L46.7268987,138.222917 L46.614301,139.309723 L46.5049593,140.412771 L46.398877,141.532233 L46.2960576,142.668281 L46.1965043,143.82109 L46.1002206,144.990832 L46.0072098,146.17768 L45.8738378,147.990406 L45.7890241,149.220777 L45.6679635,151.099599 L45.591368,152.374575 L45.5180656,153.667696 L45.4142941,155.641778 L45.3492394,156.981019 L45.2874896,158.33901 L45.2290482,159.715925 L45.1475966,161.817159 L45.0974407,163.242141 L45.050605,164.686652 L44.986584,166.890416 L44.9480634,168.384509 L44.9128747,169.898738 L44.8663464,172.208213 L44.8395023,173.773537 L44.8160019,175.359603 L44.7870282,177.777969 L44.7719019,179.416646 L44.7555051,181.914739 L44.7449857,184.461449 L44.7449857,326.678744 L44.7517192,329.241788 L44.7601311,330.923331 L44.7790458,333.40535 L44.8055066,335.839533 L44.8395023,338.226463 L44.8810213,340.566725 L44.9128747,342.101262 L44.9480634,343.615491 L45.0070928,345.849133 L45.050605,347.313348 L45.0974407,348.757859 L45.1475966,350.182841 L45.2290482,352.284075 L45.2874896,353.66099 L45.3492394,355.018981 L45.4480598,357.020865 L45.5180656,358.332304 L45.591368,359.625425 L45.7074952,361.531139 L45.7890241,362.779223 L45.8738378,364.009594 L46.0072098,365.82232 L46.1002206,367.009168 L46.1965043,368.17891 L46.2960576,369.331719 L46.398877,370.467767 L46.5049593,371.587229 L46.614301,372.690277 L46.7268987,373.777083 L46.8427492,374.847823 L46.961849,375.902667 L47.0841948,376.94179 L47.2737922,378.471375 L47.4706741,379.96656 L47.60597,380.944527 L47.744495,381.907639 L47.8862457,382.856067 L48.0312188,383.789986 L48.1794109,384.709567 L48.3308186,385.614985 L48.4854385,386.506413 L48.6432673,387.384023 L48.8043016,388.247988 L48.8860198,388.674908 C50.9002014,399.105196 53.5230989,406.425038 58.229755,415.415437 L58.855605,416.597965 C67.3433726,432.46871 79.5312896,444.656627 95.4020352,453.144395 L96.5845628,453.770245 C105.379519,458.374582 112.57576,460.984775 122.649217,462.981742 L123.752012,463.195698 L124.615977,463.356733 L125.493587,463.514561 L126.385015,463.669181 L127.290433,463.820589 L128.675171,464.04167 L129.616322,464.185033 L130.572071,464.325171 L131.542589,464.462082 L133.026437,464.661389 L134.034636,464.790217 L135.05821,464.915805 L136.622779,465.098107 L138.222917,465.273101 L139.309723,465.385699 L140.412771,465.495041 L141.532233,465.601123 L142.668281,465.703942 L143.82109,465.803496 L144.990832,465.899779 L146.17768,465.99279 L147.990406,466.126162 L149.220777,466.210976 L151.099599,466.332036 L152.374575,466.408632 L153.667696,466.481934 L155.641778,466.585706 L156.981019,466.650761 L158.33901,466.71251 L159.715925,466.770952 L161.817159,466.852403 L163.242141,466.902559 L164.686652,466.949395 L166.890416,467.013416 L168.384509,467.051937 L169.898738,467.087125 L172.208213,467.133654 L173.773537,467.160498 L175.359603,467.183998 L177.777969,467.212972 L179.416646,467.228098 L181.914739,467.244495 L184.461449,467.255014 L326.678744,467.255014 L329.241788,467.248281 L330.923331,467.239869 L333.40535,467.220954 L335.839533,467.194493 L338.226463,467.160498 L340.566725,467.118979 L342.101262,467.087125 L343.615491,467.051937 L345.849133,466.992907 L347.313348,466.949395 L348.757859,466.902559 L350.182841,466.852403 L352.284075,466.770952 L353.66099,466.71251 L355.018981,466.650761 L357.020865,466.55194 L358.332304,466.481934 L359.625425,466.408632 L361.531139,466.292505 L362.779223,466.210976 L364.009594,466.126162 L365.82232,465.99279 L367.009168,465.899779 L368.17891,465.803496 L369.331719,465.703942 L370.467767,465.601123 L371.587229,465.495041 L372.690277,465.385699 L373.777083,465.273101 L374.847823,465.157251 L375.902667,465.038151 L376.94179,464.915805 L378.471375,464.726208 L379.96656,464.529326 L380.944527,464.39403 L381.907639,464.255505 L382.856067,464.113754 L383.789986,463.968781 L384.709567,463.820589 L385.614985,463.669181 L386.506413,463.514561 L387.384023,463.356733 L388.247988,463.195698 L388.674908,463.11398 C399.105196,461.099799 406.425038,458.476901 415.415437,453.770245 L416.597965,453.144395 C432.46871,444.656627 444.656627,432.46871 453.144395,416.597965 L453.770245,415.415437 C458.374582,406.620481 460.984775,399.42424 462.981742,389.350783 L463.195698,388.247988 L463.356733,387.384023 L463.514561,386.506413 L463.669181,385.614985 L463.820589,384.709567 L464.04167,383.324829 L464.185033,382.383678 L464.325171,381.427929 L464.462082,380.457411 L464.661389,378.973563 L464.790217,377.965364 L464.915805,376.94179 L465.098107,375.377221 L465.273101,373.777083 L465.385699,372.690277 L465.495041,371.587229 L465.601123,370.467767 L465.703942,369.331719 L465.803496,368.17891 L465.899779,367.009168 L465.99279,365.82232 L466.126162,364.009594 L466.210976,362.779223 L466.332036,360.900401 L466.408632,359.625425 L466.481934,358.332304 L466.585706,356.358222 L466.650761,355.018981 L466.71251,353.66099 L466.770952,352.284075 L466.852403,350.182841 L466.902559,348.757859 L466.949395,347.313348 L467.013416,345.109584 L467.051937,343.615491 L467.087125,342.101262 L467.133654,339.791787 L467.160498,338.226463 L467.183998,336.640397 L467.212972,334.222031 L467.228098,332.583354 L467.244495,330.085261 L467.255014,327.538551 L467.255014,185.321256 L467.248281,182.758212 L467.239869,181.076669 L467.220954,178.59465 L467.194493,176.160467 L467.160498,173.773537 L467.118979,171.433275 L467.087125,169.898738 L467.051937,168.384509 L466.992907,166.150867 L466.949395,164.686652 L466.902559,163.242141 L466.852403,161.817159 L466.770952,159.715925 L466.71251,158.33901 L466.650761,156.981019 L466.55194,154.979135 L466.481934,153.667696 L466.408632,152.374575 L466.292505,150.468861 L466.210976,149.220777 L466.126162,147.990406 L465.99279,146.17768 L465.899779,144.990832 L465.803496,143.82109 L465.703942,142.668281 L465.601123,141.532233 L465.495041,140.412771 L465.385699,139.309723 L465.273101,138.222917 L465.157251,137.152177 L465.038151,136.097333 L464.915805,135.05821 L464.726208,133.528625 L464.529326,132.03344 L464.39403,131.055473 L464.255505,130.092361 L464.113754,129.143933 L463.968781,128.210014 L463.820589,127.290433 L463.669181,126.385015 L463.514561,125.493587 L463.356733,124.615977 L463.195698,123.752012 L463.11398,123.325092 C461.099799,112.894804 458.476901,105.574962 453.770245,96.5845628 L453.144395,95.4020352 C444.656627,79.5312896 432.46871,67.3433726 416.597965,58.855605 L415.415437,58.229755 C406.620481,53.6254176 399.42424,51.0152251 389.350783,49.0182576 L388.247988,48.8043016 L387.384023,48.6432673 L386.506413,48.4854385 L385.614985,48.3308186 L384.709567,48.1794109 L383.324829,47.9583297 L382.383678,47.8149674 L381.427929,47.6748291 L380.457411,47.5379182 L378.973563,47.3386107 L377.965364,47.2097831 L376.94179,47.0841948 L375.377221,46.9018932 L373.777083,46.7268987 L372.690277,46.614301 L371.587229,46.5049593 L370.467767,46.398877 L369.331719,46.2960576 L368.17891,46.1965043 L367.009168,46.1002206 L365.82232,46.0072098 L364.009594,45.8738378 L362.779223,45.7890241 L360.900401,45.6679635 L359.625425,45.591368 L358.332304,45.5180656 L356.358222,45.4142941 L355.018981,45.3492394 L353.66099,45.2874896 L352.284075,45.2290482 L350.182841,45.1475966 L348.757859,45.0974407 L347.313348,45.050605 L345.109584,44.986584 L343.615491,44.9480634 L342.101262,44.9128747 L339.791787,44.8663464 L338.226463,44.8395023 L336.640397,44.8160019 L334.222031,44.7870282 L332.583354,44.7719019 L330.085261,44.7555051 L327.538551,44.7449857 Z M256,125.432665 C328.110348,125.432665 386.567335,183.889652 386.567335,256 C386.567335,328.110348 328.110348,386.567335 256,386.567335 C183.889652,386.567335 125.432665,328.110348 125.432665,256 C125.432665,183.889652 183.889652,125.432665 256,125.432665 Z M256,170.17765 C208.601625,170.17765 170.17765,208.601625 170.17765,256 C170.17765,303.398375 208.601625,341.82235 256,341.82235 C303.398375,341.82235 341.82235,303.398375 341.82235,256 C341.82235,208.601625 303.398375,170.17765 256,170.17765 Z M392.43553,88.0229226 C409.045217,88.0229226 422.510029,101.487734 422.510029,118.097421 C422.510029,134.707108 409.045217,148.17192 392.43553,148.17192 C375.825843,148.17192 362.361032,134.707108 362.361032,118.097421 C362.361032,101.487734 375.825843,88.0229226 392.43553,88.0229226 Z"/></svg>