<?xml version="1.0" encoding="utf-8"?>
<!-- Generator: Adobe Illustrator 17.1.0, SVG Export Plug-In . SVG Version: 6.00 Build 0)  -->
<!DOCTYPE svg PUBLIC "-//W3C//DTD SVG 1.1//EN" "http://www.w3.org/Graphics/SVG/1.1/DTD/svg11.dtd">
<svg version="1.1" id="Ebene_1" xmlns="http://www.w3.org/2000/svg" xmlns:xlink="http://www.w3.org/1999/xlink" x="0px" y="0px"
	 viewBox="0 0 283.5 141.7" enable-background="new 0 0 283.5 141.7" xml:space="preserve">
<g>
	<g>
		<defs>
			<rect id="SVGID_1_" x="10.8" y="26" width="261.6" height="90.9"/>
		</defs>
		<clipPath id="SVGID_2_">
			<use xlink:href="#SVGID_1_"  overflow="visible"/>
		</clipPath>
		<path clip-path="url(#SVGID_2_)" fill="#003571" d="M92.4,80.1c0-1.2-1-2.2-2.1-2.2c-1.1,0-2.1,1-2.1,2.2s1,2.2,2.1,2.2
			C91.5,82.3,92.4,81.3,92.4,80.1 M85,80.1c0-1.2-1-2.2-2.1-2.2c-1.1,0-2.1,1-2.1,2.2s1,2.2,2.1,2.2C84,82.3,85,81.3,85,80.1
			 M77.5,80.1c0-1.2-1-2.2-2.1-2.2c-1.1,0-2.1,1-2.1,2.2s1,2.2,2.1,2.2C76.6,82.3,77.5,81.3,77.5,80.1 M70.1,80.1
			c0-1.2-1-2.2-2.1-2.2c-1.1,0-2.1,1-2.1,2.2s1,2.2,2.1,2.2C69.1,82.3,70.1,81.3,70.1,80.1 M62.7,80.1c0-1.2-1-2.2-2.1-2.2
			c-1.1,0-2.1,1-2.1,2.2s1,2.2,2.1,2.2C61.7,82.3,62.7,81.3,62.7,80.1"/>
		<path clip-path="url(#SVGID_2_)" fill="#003571" d="M75.5,62.2c-1.1,0-2.1,1-2.1,2.2s1,2.2,2.1,2.2c1.1,0,2.1-1,2.1-2.2
			S76.6,62.2,75.5,62.2 M75.5,70c-1.1,0-2.1,1-2.1,2.2c0,1.2,1,2.2,2.1,2.2c1.1,0,2.1-1,2.1-2.2C77.6,71,76.6,70,75.5,70 M75.5,77.8
			c-1.1,0-2.1,1-2.1,2.2s1,2.2,2.1,2.2c1.1,0,2.1-1,2.1-2.2S76.6,77.8,75.5,77.8 M75.5,85.7c-1.1,0-2.1,1-2.1,2.2s1,2.2,2.1,2.2
			c1.1,0,2.1-1,2.1-2.2S76.6,85.7,75.5,85.7 M75.5,93.5c-1.1,0-2.1,1-2.1,2.2s1,2.2,2.1,2.2c1.1,0,2.1-1,2.1-2.2
			S76.6,93.5,75.5,93.5"/>
		<path clip-path="url(#SVGID_2_)" fill="#7D1114" d="M75.5,77.8c-1.1,0-2.1,1.1-2.1,2.3c0,1.3,1,2.3,2.1,2.3c1.1,0,2.1-1.1,2.1-2.3
			C77.6,78.8,76.6,77.8,75.5,77.8"/>
		<path clip-path="url(#SVGID_2_)" fill="#003571" d="M101.4,105.7c0.7,0.8,1.7,1.2,2.7,1.2s2-0.4,2.7-1.2c0.7-0.8,1.1-1.8,1.1-3V65
			l17.8,39.4c0.7,1.7,1.9,2.6,3.5,2.6c1.5,0,2.6-0.7,3.3-2.1l18-39.8v37.7c0,1.2,0.4,2.2,1.1,3c0.7,0.8,1.7,1.2,2.7,1.2
			c1.1,0,2-0.4,2.7-1.2c0.7-0.8,1.1-1.8,1.1-3V46.9c0-0.6-0.1-1.1-0.3-1.7c-0.2-0.5-0.5-1-0.8-1.4c-0.4-0.4-0.8-0.7-1.2-0.9
			c-0.5-0.2-1-0.3-1.5-0.3c-1.4,0-2.5,0.8-3.4,2.3l-21.8,48.2l-21.8-48.2c-0.8-1.5-1.9-2.3-3.4-2.3c-0.6,0-1.1,0.1-1.5,0.3
			c-0.5,0.2-0.9,0.5-1.2,0.9c-0.3,0.4-0.6,0.8-0.8,1.4c-0.2,0.5-0.3,1.1-0.3,1.7v55.8C100.3,103.9,100.7,104.9,101.4,105.7
			 M10.8,102.7c0,1.2,0.4,2.2,1.1,3c0.7,0.8,1.6,1.2,2.7,1.2c1.1,0,2-0.4,2.7-1.2c0.4-0.4,0.7-0.9,0.9-1.4L25,85.2h18.6l6.7,19.1
			c0.2,0.5,0.5,0.9,0.9,1.4c0.7,0.8,1.6,1.2,2.7,1.2c1.1,0,2-0.4,2.7-1.2s1.1-1.8,1.1-3c0-0.6-0.1-1.2-0.3-1.7L37.9,45.5
			c-0.7-1.9-1.9-2.9-3.7-2.9c-1.7,0-2.9,1-3.7,2.9l-19.4,55.2C11,101.4,10.8,102,10.8,102.7 M27.9,76.7l6.3-18l6.3,18H27.9z"/>
	</g>
	<g>
		<path fill="#003571" d="M185.5,52.7v-8.3c0-0.1,0-0.2,0-0.2s0.1-0.1,0.1-0.2s0.1-0.1,0.2-0.1c0.1,0,0.1,0,0.2,0
			c0.2,0,0.4,0.1,0.5,0.3l3.3,7.2l3.3-7.2c0.1-0.2,0.3-0.3,0.5-0.3c0.1,0,0.2,0,0.2,0c0.1,0,0.1,0.1,0.2,0.1s0.1,0.1,0.1,0.2
			c0,0.1,0,0.2,0,0.2v8.3c0,0.2-0.1,0.3-0.2,0.5c-0.1,0.1-0.2,0.2-0.4,0.2s-0.3-0.1-0.4-0.2c-0.1-0.1-0.2-0.3-0.2-0.5v-5.6l-2.7,6
			c-0.1,0.2-0.3,0.3-0.5,0.3c-0.2,0-0.4-0.1-0.5-0.4l-2.7-5.9v5.6c0,0.2-0.1,0.3-0.2,0.5c-0.1,0.1-0.2,0.2-0.4,0.2s-0.3-0.1-0.4-0.2
			C185.5,53,185.5,52.9,185.5,52.7z"/>
		<path fill="#003571" d="M196.4,52.4l2.9-8.3c0.1-0.3,0.3-0.4,0.5-0.4c0.3,0,0.4,0.1,0.5,0.4l2.9,8.3c0,0.1,0,0.2,0,0.3
			c0,0.2-0.1,0.3-0.2,0.5c-0.1,0.1-0.2,0.2-0.4,0.2s-0.3-0.1-0.4-0.2c-0.1-0.1-0.1-0.1-0.1-0.2l-1-2.9h-2.8l-1,2.9
			c0,0.1-0.1,0.1-0.1,0.2c-0.1,0.1-0.2,0.2-0.4,0.2s-0.3-0.1-0.4-0.2c-0.1-0.1-0.2-0.3-0.2-0.5C196.4,52.6,196.4,52.5,196.4,52.4z
			 M200.8,48.8l-0.9-2.7l-0.9,2.7H200.8z"/>
		<path fill="#003571" d="M205.5,52.7v-8.3c0-0.1,0-0.2,0-0.2c0-0.1,0.1-0.1,0.1-0.2c0.1-0.1,0.1-0.1,0.2-0.1c0.1,0,0.1,0,0.2,0h2.1
			c0.4,0,0.7,0.1,1,0.2c0.3,0.2,0.6,0.4,0.8,0.6c0.2,0.3,0.4,0.6,0.6,0.9c0.1,0.4,0.2,0.7,0.2,1.1c0,0.3,0,0.5-0.1,0.8
			c-0.1,0.3-0.1,0.5-0.3,0.7c-0.1,0.2-0.3,0.4-0.4,0.6s-0.4,0.4-0.6,0.5l1.7,3.1c0.1,0.1,0.1,0.2,0.1,0.3c0,0.1,0,0.2,0,0.3
			c0,0.1-0.1,0.1-0.1,0.2c-0.1,0.1-0.1,0.1-0.2,0.1c-0.1,0-0.1,0-0.2,0c-0.2,0-0.4-0.1-0.5-0.3l-1.9-3.4h-1.6v3.1
			c0,0.2-0.1,0.3-0.2,0.5c-0.1,0.1-0.2,0.2-0.4,0.2s-0.3-0.1-0.4-0.2C205.6,53,205.5,52.9,205.5,52.7z M206.7,45v3.4h1.5
			c0.2,0,0.4,0,0.6-0.1c0.2-0.1,0.3-0.2,0.5-0.4s0.2-0.3,0.3-0.5c0.1-0.2,0.1-0.4,0.1-0.6c0-0.2,0-0.5-0.1-0.7
			c-0.1-0.2-0.2-0.4-0.3-0.5c-0.1-0.2-0.3-0.3-0.5-0.4s-0.4-0.1-0.6-0.1H206.7z"/>
		<path fill="#003571" d="M213.5,44.3c0-0.2,0.1-0.3,0.2-0.5c0.1-0.1,0.2-0.2,0.4-0.2s0.3,0.1,0.4,0.2c0.1,0.1,0.2,0.3,0.2,0.5v3.6
			l3.6-4c0.1-0.1,0.3-0.2,0.4-0.2c0.1,0,0.2,0,0.2,0s0.1,0.1,0.2,0.1c0.1,0.1,0.1,0.1,0.1,0.2c0,0.1,0,0.2,0,0.2
			c0,0.2-0.1,0.3-0.2,0.5l-2.8,3.2l2.9,4.4c0.1,0.1,0.1,0.2,0.1,0.4c0,0.1,0,0.2,0,0.2c0,0.1-0.1,0.2-0.1,0.2c0,0.1-0.1,0.1-0.2,0.1
			s-0.1,0.1-0.2,0.1c-0.2,0-0.4-0.1-0.5-0.3l-2.8-4.2l-0.8,0.8v3c0,0.2-0.1,0.3-0.2,0.5c-0.1,0.1-0.2,0.2-0.4,0.2s-0.3-0.1-0.4-0.2
			c-0.1-0.1-0.2-0.3-0.2-0.5V44.3z"/>
		<path fill="#003571" d="M227,52.1c0.2,0,0.3,0.1,0.4,0.2c0.1,0.1,0.2,0.3,0.2,0.5c0,0.2-0.1,0.3-0.2,0.5c-0.1,0.1-0.2,0.2-0.4,0.2
			h-5c-0.1,0-0.2,0-0.2,0c-0.1,0-0.1-0.1-0.2-0.1c-0.1-0.1-0.1-0.1-0.1-0.2c0-0.1,0-0.2,0-0.3v-8.3c0-0.1,0-0.2,0-0.2
			c0-0.1,0.1-0.1,0.1-0.2c0.1-0.1,0.1-0.1,0.2-0.1s0.1,0,0.2,0h5c0.2,0,0.3,0.1,0.4,0.2c0.1,0.1,0.2,0.3,0.2,0.5s-0.1,0.3-0.2,0.5
			S227.2,45,227,45h-4.4v2.9h3.2c0.2,0,0.3,0.1,0.4,0.2c0.1,0.1,0.2,0.3,0.2,0.5c0,0.2-0.1,0.3-0.2,0.5c-0.1,0.1-0.2,0.2-0.4,0.2
			h-3.2v2.9H227z"/>
		<path fill="#003571" d="M235.8,45h-2.1v7.7c0,0.2-0.1,0.3-0.2,0.5c-0.1,0.1-0.2,0.2-0.4,0.2s-0.3-0.1-0.4-0.2
			c-0.1-0.1-0.2-0.3-0.2-0.5V45h-2.1c-0.2,0-0.3-0.1-0.4-0.2s-0.2-0.3-0.2-0.5s0.1-0.3,0.2-0.5c0.1-0.1,0.2-0.2,0.4-0.2h5.4
			c0.2,0,0.3,0.1,0.4,0.2c0.1,0.1,0.2,0.3,0.2,0.5s-0.1,0.3-0.2,0.5S236,45,235.8,45z"/>
		<path fill="#003571" d="M240.1,52.7c0,0.2-0.1,0.3-0.2,0.5c-0.1,0.1-0.2,0.2-0.4,0.2s-0.3-0.1-0.4-0.2c-0.1-0.1-0.2-0.3-0.2-0.5
			v-8.3c0-0.2,0.1-0.3,0.2-0.5c0.1-0.1,0.2-0.2,0.4-0.2s0.3,0.1,0.4,0.2c0.1,0.1,0.2,0.3,0.2,0.5V52.7z"/>
		<path fill="#003571" d="M242.6,52.7v-8.3c0-0.1,0-0.2,0-0.2c0-0.1,0.1-0.1,0.1-0.2c0.1-0.1,0.1-0.1,0.2-0.1c0.1,0,0.1,0,0.2,0
			c0.2,0,0.3,0.1,0.4,0.2l4.8,6.9v-6.5c0-0.2,0.1-0.3,0.2-0.5c0.1-0.1,0.2-0.2,0.4-0.2s0.3,0.1,0.4,0.2c0.1,0.1,0.2,0.3,0.2,0.5v8.3
			c0,0.1,0,0.2,0,0.3s-0.1,0.1-0.1,0.2s-0.1,0.1-0.2,0.1c-0.1,0-0.1,0-0.2,0c-0.2,0-0.3-0.1-0.4-0.2l-4.8-6.9v6.5
			c0,0.2-0.1,0.3-0.2,0.5c-0.1,0.1-0.2,0.2-0.4,0.2s-0.3-0.1-0.4-0.2C242.7,53,242.6,52.9,242.6,52.7z"/>
		<path fill="#003571" d="M259,51.8c0,0.2-0.1,0.3-0.2,0.5c-0.8,0.7-1.7,1.1-2.7,1.1c-1.2,0-2.2-0.5-3.1-1.4s-1.3-2.1-1.3-3.4
			c0-1.3,0.4-2.5,1.3-3.4c0.8-0.9,1.9-1.4,3.1-1.4c1,0,2,0.4,2.8,1.1c0.1,0.1,0.2,0.3,0.2,0.4c0,0.1,0,0.2,0,0.3s-0.1,0.1-0.1,0.2
			s-0.1,0.1-0.2,0.1c-0.1,0-0.1,0-0.2,0c-0.1,0-0.3-0.1-0.4-0.2c-0.3-0.2-0.6-0.4-0.9-0.6s-0.7-0.2-1.1-0.2c-0.9,0-1.6,0.3-2.3,1
			c-0.6,0.7-0.9,1.5-0.9,2.5c0,1,0.3,1.8,0.9,2.5c0.6,0.7,1.4,1,2.3,1c0.7,0,1.2-0.2,1.8-0.6v-1.9h-1.5c-0.2,0-0.3-0.1-0.4-0.2
			c-0.1-0.1-0.2-0.3-0.2-0.5c0-0.1,0-0.2,0-0.2s0.1-0.1,0.1-0.2s0.1-0.1,0.2-0.1c0.1,0,0.1,0,0.2,0h2.1c0.1,0,0.1,0,0.2,0.1
			c0.1,0,0.1,0.1,0.2,0.1c0.1,0.1,0.1,0.1,0.1,0.2c0,0.1,0,0.2,0,0.2V51.8z"/>
	</g>
	<g>
		<path fill="#003571" d="M192.1,68.8c0.1,0,0.2,0,0.2,0.1c0.1,0,0.1,0.1,0.2,0.1c0.1,0.1,0.1,0.1,0.1,0.2c0,0.1,0,0.2,0,0.2
			c0,0.2-0.1,0.3-0.2,0.5c-0.8,0.7-1.7,1.1-2.7,1.1c-1.2,0-2.2-0.5-3.1-1.4s-1.3-2.1-1.3-3.4c0-1.3,0.4-2.5,1.3-3.4
			c0.8-0.9,1.9-1.4,3.1-1.4c1,0,2,0.4,2.8,1.1c0.1,0.1,0.2,0.3,0.2,0.4c0,0.1,0,0.2,0,0.3s-0.1,0.1-0.1,0.2s-0.1,0.1-0.2,0.1
			c-0.1,0-0.1,0-0.2,0c-0.1,0-0.3-0.1-0.4-0.2c-0.3-0.2-0.6-0.4-0.9-0.6s-0.7-0.2-1.1-0.2c-0.9,0-1.6,0.3-2.3,1
			c-0.6,0.7-0.9,1.5-0.9,2.5c0,1,0.3,1.8,0.9,2.5c0.6,0.7,1.4,1,2.3,1c0.8,0,1.4-0.3,2-0.8C191.9,68.9,192,68.8,192.1,68.8z"/>
		<path fill="#003571" d="M202.3,66.2c0,1.3-0.4,2.5-1.3,3.4c-0.8,0.9-1.9,1.4-3.1,1.4c-1.2,0-2.2-0.5-3.1-1.4s-1.3-2.1-1.3-3.4
			c0-1.3,0.4-2.5,1.3-3.4c0.8-0.9,1.9-1.4,3.1-1.4c1.2,0,2.2,0.5,3.1,1.4c0.4,0.5,0.7,1,1,1.6C202.2,64.9,202.3,65.5,202.3,66.2z
			 M198,62.6c-0.4,0-0.9,0.1-1.2,0.3c-0.4,0.2-0.7,0.4-1,0.8c-0.3,0.3-0.5,0.7-0.7,1.1c-0.2,0.4-0.2,0.9-0.2,1.4
			c0,1,0.3,1.8,0.9,2.5c0.6,0.7,1.4,1,2.3,1s1.6-0.3,2.3-1c0.6-0.7,0.9-1.5,0.9-2.5c0-1-0.3-1.8-0.9-2.5
			C199.6,63,198.9,62.6,198,62.6z"/>
		<path fill="#003571" d="M203.7,70.3V62c0-0.1,0-0.2,0-0.2c0-0.1,0.1-0.1,0.1-0.2c0.1-0.1,0.1-0.1,0.2-0.1c0.1,0,0.1,0,0.2,0
			c0.2,0,0.3,0.1,0.4,0.2l4.8,6.9V62c0-0.2,0.1-0.3,0.2-0.5c0.1-0.1,0.2-0.2,0.4-0.2s0.3,0.1,0.4,0.2c0.1,0.1,0.2,0.3,0.2,0.5v8.3
			c0,0.1,0,0.2,0,0.3s-0.1,0.1-0.1,0.2s-0.1,0.1-0.2,0.1c-0.1,0-0.1,0-0.2,0c-0.2,0-0.3-0.1-0.4-0.2l-4.8-6.9v6.5
			c0,0.2-0.1,0.3-0.2,0.5c-0.1,0.1-0.2,0.2-0.4,0.2s-0.3-0.1-0.4-0.2C203.8,70.7,203.7,70.5,203.7,70.3z"/>
		<path fill="#003571" d="M212.5,69.7c-0.1-0.1-0.1-0.2-0.1-0.4c0-0.1,0-0.2,0-0.2c0-0.1,0.1-0.1,0.1-0.2c0.1-0.1,0.1-0.1,0.2-0.1
			c0.1,0,0.1,0,0.2,0c0.2,0,0.4,0.1,0.5,0.3c0.2,0.3,0.3,0.5,0.6,0.6c0.2,0.1,0.5,0.2,0.7,0.2c0.2,0,0.4,0,0.6-0.1s0.3-0.2,0.5-0.4
			c0.1-0.2,0.2-0.3,0.3-0.5c0.1-0.2,0.1-0.4,0.1-0.7c0-0.2,0-0.4-0.1-0.6c-0.1-0.2-0.2-0.4-0.3-0.5s-0.3-0.3-0.4-0.4
			s-0.3-0.1-0.5-0.2c-0.3,0-0.6-0.1-0.8-0.3c-0.2-0.1-0.5-0.3-0.7-0.5c-0.2-0.2-0.3-0.5-0.4-0.8c-0.1-0.3-0.2-0.6-0.2-0.9
			c0-0.4,0.1-0.7,0.2-1.1s0.3-0.6,0.6-0.9h0c0.4-0.4,0.9-0.6,1.5-0.6c0.2,0,0.4,0,0.5,0.1c0.2,0.1,0.4,0.1,0.5,0.2
			c0.2,0.1,0.3,0.2,0.5,0.4s0.3,0.3,0.4,0.5c0.1,0.1,0.1,0.2,0.1,0.3c0,0.1,0,0.2,0,0.3c0,0.1-0.1,0.1-0.1,0.2s-0.1,0.1-0.2,0.1
			c-0.1,0-0.1,0-0.2,0c-0.1,0-0.1,0-0.2,0s-0.1-0.1-0.2-0.1c0,0-0.1-0.1-0.1-0.2s-0.1-0.1-0.1-0.2c-0.1-0.1-0.2-0.2-0.4-0.3
			s-0.3-0.1-0.5-0.1c-0.1,0-0.3,0-0.4,0.1c-0.1,0.1-0.2,0.1-0.3,0.3c-0.1,0.1-0.2,0.2-0.2,0.4c-0.1,0.1-0.1,0.3-0.1,0.5
			c0,0.2,0,0.3,0.1,0.4c0.1,0.1,0.1,0.3,0.2,0.4c0.1,0.1,0.2,0.2,0.3,0.3s0.3,0.1,0.4,0.1c0.3,0,0.7,0.1,0.9,0.3s0.6,0.4,0.8,0.6
			c0.2,0.3,0.4,0.6,0.5,0.9c0.1,0.3,0.2,0.7,0.2,1.1c0,0.9-0.3,1.7-0.9,2.3h0c-0.5,0.5-1.1,0.7-1.7,0.7c-0.2,0-0.4,0-0.6-0.1
			c-0.2-0.1-0.4-0.1-0.6-0.3s-0.4-0.3-0.6-0.4C212.7,70.1,212.6,69.9,212.5,69.7z"/>
		<path fill="#003571" d="M220.1,62v5.6c0,0.3,0.1,0.6,0.2,0.8c0.1,0.3,0.2,0.5,0.4,0.7c0.2,0.2,0.4,0.3,0.6,0.5s0.5,0.2,0.8,0.2
			c0.3,0,0.5-0.1,0.8-0.2c0.2-0.1,0.4-0.3,0.6-0.5c0.2-0.2,0.3-0.4,0.4-0.7c0.1-0.3,0.2-0.5,0.2-0.8V62c0-0.2,0.1-0.3,0.2-0.5
			c0.1-0.1,0.2-0.2,0.4-0.2s0.3,0.1,0.4,0.2c0.1,0.1,0.2,0.3,0.2,0.5v5.6c0,0.3,0,0.6-0.1,0.9c-0.1,0.3-0.2,0.6-0.3,0.8
			c-0.1,0.3-0.3,0.5-0.5,0.7c-0.2,0.2-0.4,0.4-0.6,0.5c-0.2,0.2-0.5,0.3-0.7,0.3c-0.3,0.1-0.5,0.1-0.8,0.1c-0.9,0-1.6-0.3-2.2-1
			c-0.6-0.7-0.9-1.5-0.9-2.4V62c0-0.2,0.1-0.3,0.2-0.5c0.1-0.1,0.2-0.2,0.4-0.2s0.3,0.1,0.4,0.2C220,61.7,220.1,61.8,220.1,62z"/>
		<path fill="#003571" d="M226.8,62c0-0.2,0.1-0.3,0.2-0.5c0.1-0.1,0.2-0.2,0.4-0.2s0.3,0.1,0.4,0.2c0.1,0.1,0.2,0.3,0.2,0.5v7.7h4
			c0.2,0,0.3,0.1,0.4,0.2c0.1,0.1,0.2,0.3,0.2,0.5c0,0.2-0.1,0.3-0.2,0.5c-0.1,0.1-0.2,0.2-0.4,0.2h-4.6c-0.1,0-0.2,0-0.2,0
			c-0.1,0-0.1-0.1-0.2-0.1c-0.1-0.1-0.1-0.1-0.1-0.2c0-0.1,0-0.2,0-0.3V62z"/>
		<path fill="#003571" d="M238,62.6h-2.1v7.7c0,0.2-0.1,0.3-0.2,0.5c-0.1,0.1-0.2,0.2-0.4,0.2s-0.3-0.1-0.4-0.2
			c-0.1-0.1-0.2-0.3-0.2-0.5v-7.7h-2.1c-0.2,0-0.3-0.1-0.4-0.2S232,62.2,232,62s0.1-0.3,0.2-0.5c0.1-0.1,0.2-0.2,0.4-0.2h5.4
			c0.2,0,0.3,0.1,0.4,0.2c0.1,0.1,0.2,0.3,0.2,0.5s-0.1,0.3-0.2,0.5S238.2,62.6,238,62.6z"/>
		<path fill="#003571" d="M241.5,70.3c0,0.2-0.1,0.3-0.2,0.5c-0.1,0.1-0.2,0.2-0.4,0.2s-0.3-0.1-0.4-0.2c-0.1-0.1-0.2-0.3-0.2-0.5
			V62c0-0.2,0.1-0.3,0.2-0.5c0.1-0.1,0.2-0.2,0.4-0.2s0.3,0.1,0.4,0.2c0.1,0.1,0.2,0.3,0.2,0.5V70.3z"/>
		<path fill="#003571" d="M243.4,70.3V62c0-0.1,0-0.2,0-0.2c0-0.1,0.1-0.1,0.1-0.2c0.1-0.1,0.1-0.1,0.2-0.1c0.1,0,0.1,0,0.2,0
			c0.2,0,0.3,0.1,0.4,0.2l4.8,6.9V62c0-0.2,0.1-0.3,0.2-0.5c0.1-0.1,0.2-0.2,0.4-0.2s0.3,0.1,0.4,0.2c0.1,0.1,0.2,0.3,0.2,0.5v8.3
			c0,0.1,0,0.2,0,0.3s-0.1,0.1-0.1,0.2s-0.1,0.1-0.2,0.1c-0.1,0-0.1,0-0.2,0c-0.2,0-0.3-0.1-0.4-0.2l-4.8-6.9v6.5
			c0,0.2-0.1,0.3-0.2,0.5c-0.1,0.1-0.2,0.2-0.4,0.2s-0.3-0.1-0.4-0.2C243.4,70.7,243.4,70.5,243.4,70.3z"/>
		<path fill="#003571" d="M259.2,69.5c0,0.2-0.1,0.3-0.2,0.5c-0.8,0.7-1.7,1.1-2.7,1.1c-1.2,0-2.2-0.5-3.1-1.4s-1.3-2.1-1.3-3.4
			c0-1.3,0.4-2.5,1.3-3.4c0.8-0.9,1.9-1.4,3.1-1.4c1,0,2,0.4,2.8,1.1c0.1,0.1,0.2,0.3,0.2,0.4c0,0.1,0,0.2,0,0.3s-0.1,0.1-0.1,0.2
			s-0.1,0.1-0.2,0.1c-0.1,0-0.1,0-0.2,0c-0.1,0-0.3-0.1-0.4-0.2c-0.3-0.2-0.6-0.4-0.9-0.6s-0.7-0.2-1.1-0.2c-0.9,0-1.6,0.3-2.3,1
			c-0.6,0.7-0.9,1.5-0.9,2.5c0,1,0.3,1.8,0.9,2.5c0.6,0.7,1.4,1,2.3,1c0.7,0,1.2-0.2,1.8-0.6v-1.9h-1.5c-0.2,0-0.3-0.1-0.4-0.2
			c-0.1-0.1-0.2-0.3-0.2-0.5c0-0.1,0-0.2,0-0.2s0.1-0.1,0.1-0.2s0.1-0.1,0.2-0.1c0.1,0,0.1,0,0.2,0h2.1c0.1,0,0.1,0,0.2,0.1
			c0.1,0,0.1,0.1,0.2,0.1c0.1,0.1,0.1,0.1,0.1,0.2c0,0.1,0,0.2,0,0.2V69.5z"/>
	</g>
	<g>
		<path fill="#003571" d="M191.4,80.3h-2.1V88c0,0.2-0.1,0.3-0.2,0.5s-0.2,0.2-0.4,0.2s-0.3-0.1-0.4-0.2s-0.2-0.3-0.2-0.5v-7.7H186
			c-0.2,0-0.3-0.1-0.4-0.2c-0.1-0.1-0.2-0.3-0.2-0.5c0-0.2,0.1-0.3,0.2-0.5c0.1-0.1,0.2-0.2,0.4-0.2h5.4c0.2,0,0.3,0.1,0.4,0.2
			c0.1,0.1,0.2,0.3,0.2,0.5c0,0.2-0.1,0.3-0.2,0.5C191.7,80.2,191.6,80.3,191.4,80.3z"/>
		<path fill="#003571" d="M194.1,88v-8.3c0-0.1,0-0.2,0-0.2c0-0.1,0.1-0.1,0.1-0.2c0.1-0.1,0.1-0.1,0.2-0.1c0.1,0,0.1,0,0.2,0h2.1
			c0.4,0,0.7,0.1,1,0.2c0.3,0.2,0.6,0.4,0.8,0.6c0.2,0.3,0.4,0.6,0.6,0.9c0.1,0.4,0.2,0.7,0.2,1.1c0,0.3,0,0.5-0.1,0.8
			c-0.1,0.2-0.1,0.5-0.3,0.7c-0.1,0.2-0.3,0.4-0.4,0.6s-0.4,0.4-0.6,0.5l1.7,3.1c0.1,0.1,0.1,0.2,0.1,0.3c0,0.1,0,0.2,0,0.3
			c0,0.1-0.1,0.1-0.1,0.2c-0.1,0.1-0.1,0.1-0.2,0.1s-0.1,0-0.2,0c-0.2,0-0.4-0.1-0.5-0.3l-1.9-3.4h-1.6V88c0,0.2-0.1,0.3-0.2,0.5
			c-0.1,0.1-0.2,0.2-0.4,0.2s-0.3-0.1-0.4-0.2S194.1,88.2,194.1,88z M195.3,80.3v3.4h1.5c0.2,0,0.4,0,0.6-0.1
			c0.2-0.1,0.3-0.2,0.5-0.4c0.1-0.2,0.2-0.3,0.3-0.5c0.1-0.2,0.1-0.4,0.1-0.6c0-0.2,0-0.5-0.1-0.7c-0.1-0.2-0.2-0.4-0.3-0.5
			c-0.1-0.2-0.3-0.3-0.5-0.4s-0.4-0.1-0.6-0.1H195.3z"/>
		<path fill="#003571" d="M201.8,87.7l2.9-8.3c0.1-0.3,0.3-0.4,0.5-0.4c0.3,0,0.4,0.1,0.5,0.4l2.9,8.3c0,0.1,0,0.2,0,0.3
			c0,0.2-0.1,0.3-0.2,0.5c-0.1,0.1-0.2,0.2-0.4,0.2s-0.3-0.1-0.4-0.2c-0.1-0.1-0.1-0.1-0.1-0.2l-1-2.9h-2.8l-1,2.9
			c0,0.1-0.1,0.1-0.1,0.2c-0.1,0.1-0.2,0.2-0.4,0.2s-0.3-0.1-0.4-0.2s-0.2-0.3-0.2-0.5C201.7,87.9,201.7,87.8,201.8,87.7z
			 M206.1,84.1l-0.9-2.7l-0.9,2.7H206.1z"/>
		<path fill="#003571" d="M212.4,88c0,0.2-0.1,0.3-0.2,0.5s-0.2,0.2-0.4,0.2s-0.3-0.1-0.4-0.2c-0.1-0.1-0.2-0.3-0.2-0.5v-8.3
			c0-0.2,0.1-0.3,0.2-0.5c0.1-0.1,0.2-0.2,0.4-0.2s0.3,0.1,0.4,0.2c0.1,0.1,0.2,0.3,0.2,0.5V88z"/>
		<path fill="#003571" d="M215,88v-8.3c0-0.1,0-0.2,0-0.2c0-0.1,0.1-0.1,0.1-0.2c0.1-0.1,0.1-0.1,0.2-0.1c0.1,0,0.1,0,0.2,0
			c0.2,0,0.3,0.1,0.4,0.2l4.8,6.9v-6.5c0-0.2,0.1-0.3,0.2-0.5c0.1-0.1,0.2-0.2,0.4-0.2s0.3,0.1,0.4,0.2c0.1,0.1,0.2,0.3,0.2,0.5V88
			c0,0.1,0,0.2,0,0.3s-0.1,0.1-0.1,0.2c-0.1,0.1-0.1,0.1-0.2,0.1s-0.1,0-0.2,0c-0.2,0-0.3-0.1-0.4-0.2l-4.8-6.9V88
			c0,0.2-0.1,0.3-0.2,0.5c-0.1,0.1-0.2,0.2-0.4,0.2s-0.3-0.1-0.4-0.2S215,88.2,215,88z"/>
		<path fill="#003571" d="M226,88c0,0.2-0.1,0.3-0.2,0.5s-0.2,0.2-0.4,0.2s-0.3-0.1-0.4-0.2c-0.1-0.1-0.2-0.3-0.2-0.5v-8.3
			c0-0.2,0.1-0.3,0.2-0.5c0.1-0.1,0.2-0.2,0.4-0.2s0.3,0.1,0.4,0.2c0.1,0.1,0.2,0.3,0.2,0.5V88z"/>
		<path fill="#003571" d="M229,88v-8.3c0-0.1,0-0.2,0-0.2c0-0.1,0.1-0.1,0.1-0.2c0.1-0.1,0.1-0.1,0.2-0.1c0.1,0,0.1,0,0.2,0
			c0.2,0,0.3,0.1,0.4,0.2l4.8,6.9v-6.5c0-0.2,0.1-0.3,0.2-0.5c0.1-0.1,0.2-0.2,0.4-0.2s0.3,0.1,0.4,0.2c0.1,0.1,0.2,0.3,0.2,0.5V88
			c0,0.1,0,0.2,0,0.3s-0.1,0.1-0.1,0.2c-0.1,0.1-0.1,0.1-0.2,0.1s-0.1,0-0.2,0c-0.2,0-0.3-0.1-0.4-0.2l-4.8-6.9V88
			c0,0.2-0.1,0.3-0.2,0.5c-0.1,0.1-0.2,0.2-0.4,0.2s-0.3-0.1-0.4-0.2S229,88.2,229,88z"/>
		<path fill="#003571" d="M245.3,87.1c0,0.2-0.1,0.3-0.2,0.5c-0.8,0.7-1.7,1.1-2.7,1.1c-1.2,0-2.2-0.5-3.1-1.4s-1.3-2.1-1.3-3.4
			c0-1.3,0.4-2.5,1.3-3.4c0.8-0.9,1.9-1.4,3.1-1.4c1,0,2,0.4,2.8,1.1c0.1,0.1,0.2,0.3,0.2,0.4c0,0.1,0,0.2,0,0.3s-0.1,0.1-0.1,0.2
			c-0.1,0.1-0.1,0.1-0.2,0.1s-0.1,0-0.2,0c-0.1,0-0.3-0.1-0.4-0.2c-0.3-0.2-0.6-0.4-0.9-0.6c-0.3-0.1-0.7-0.2-1.1-0.2
			c-0.9,0-1.6,0.3-2.3,1c-0.6,0.7-0.9,1.5-0.9,2.5c0,1,0.3,1.8,0.9,2.5c0.6,0.7,1.4,1,2.3,1c0.7,0,1.2-0.2,1.8-0.6v-1.9h-1.5
			c-0.2,0-0.3-0.1-0.4-0.2c-0.1-0.1-0.2-0.3-0.2-0.5c0-0.1,0-0.2,0-0.2s0.1-0.1,0.1-0.2c0.1-0.1,0.1-0.1,0.2-0.1c0.1,0,0.1,0,0.2,0
			h2.1c0.1,0,0.1,0,0.2,0.1c0.1,0,0.1,0.1,0.2,0.1c0.1,0.1,0.1,0.1,0.1,0.2c0,0.1,0,0.2,0,0.2V87.1z"/>
	</g>
	<g>
		<path fill="#003571" d="M192.1,104.1c0.1,0,0.2,0,0.2,0.1c0.1,0,0.1,0.1,0.2,0.1c0.1,0.1,0.1,0.1,0.1,0.2c0,0.1,0,0.2,0,0.2
			c0,0.2-0.1,0.3-0.2,0.5c-0.8,0.7-1.7,1.1-2.7,1.1c-1.2,0-2.2-0.5-3.1-1.4s-1.3-2.1-1.3-3.4c0-1.3,0.4-2.5,1.3-3.4
			c0.8-0.9,1.9-1.4,3.1-1.4c1,0,2,0.4,2.8,1.1c0.1,0.1,0.2,0.3,0.2,0.4c0,0.1,0,0.2,0,0.3s-0.1,0.1-0.1,0.2
			c-0.1,0.1-0.1,0.1-0.2,0.1s-0.1,0-0.2,0c-0.1,0-0.3-0.1-0.4-0.2c-0.3-0.2-0.6-0.4-0.9-0.6c-0.3-0.1-0.7-0.2-1.1-0.2
			c-0.9,0-1.6,0.3-2.3,1c-0.6,0.7-0.9,1.5-0.9,2.5c0,1,0.3,1.8,0.9,2.5c0.6,0.7,1.4,1,2.3,1c0.8,0,1.4-0.3,2-0.8
			C191.9,104.2,192,104.1,192.1,104.1z"/>
		<path fill="#003571" d="M202.2,101.5c0,1.3-0.4,2.5-1.3,3.4c-0.8,0.9-1.9,1.4-3.1,1.4c-1.2,0-2.2-0.5-3.1-1.4s-1.3-2.1-1.3-3.4
			c0-1.3,0.4-2.5,1.3-3.4c0.8-0.9,1.9-1.4,3.1-1.4c1.2,0,2.2,0.5,3.1,1.4c0.4,0.5,0.7,1,1,1.6C202.1,100.2,202.2,100.8,202.2,101.5z
			 M197.8,97.9c-0.4,0-0.9,0.1-1.2,0.3c-0.4,0.2-0.7,0.4-1,0.8c-0.3,0.3-0.5,0.7-0.7,1.1c-0.2,0.4-0.2,0.9-0.2,1.4
			c0,1,0.3,1.8,0.9,2.5c0.6,0.7,1.4,1,2.3,1s1.6-0.3,2.3-1c0.6-0.7,0.9-1.5,0.9-2.5c0-1-0.3-1.8-0.9-2.5
			C199.5,98.3,198.7,97.9,197.8,97.9z"/>
		<path fill="#003571" d="M202.9,105.4l2.9-8.3c0.1-0.3,0.3-0.4,0.5-0.4c0.3,0,0.4,0.1,0.5,0.4l2.9,8.3c0,0.1,0,0.2,0,0.3
			c0,0.2-0.1,0.3-0.2,0.5c-0.1,0.1-0.2,0.2-0.4,0.2s-0.3-0.1-0.4-0.2c-0.1-0.1-0.1-0.1-0.1-0.2l-1-2.9H205l-1,2.9
			c0,0.1-0.1,0.1-0.1,0.2c-0.1,0.1-0.2,0.2-0.4,0.2s-0.3-0.1-0.4-0.2s-0.2-0.3-0.2-0.5C202.9,105.6,202.9,105.5,202.9,105.4z
			 M207.3,101.8l-0.9-2.7l-0.9,2.7H207.3z"/>
		<path fill="#003571" d="M217.4,104.1c0.1,0,0.2,0,0.2,0.1c0.1,0,0.1,0.1,0.2,0.1c0.1,0.1,0.1,0.1,0.1,0.2c0,0.1,0,0.2,0,0.2
			c0,0.2-0.1,0.3-0.2,0.5c-0.8,0.7-1.7,1.1-2.7,1.1c-1.2,0-2.2-0.5-3.1-1.4s-1.3-2.1-1.3-3.4c0-1.3,0.4-2.5,1.3-3.4
			c0.8-0.9,1.9-1.4,3.1-1.4c1,0,2,0.4,2.8,1.1c0.1,0.1,0.2,0.3,0.2,0.4c0,0.1,0,0.2,0,0.3s-0.1,0.1-0.1,0.2
			c-0.1,0.1-0.1,0.1-0.2,0.1s-0.1,0-0.2,0c-0.1,0-0.3-0.1-0.4-0.2c-0.3-0.2-0.6-0.4-0.9-0.6c-0.3-0.1-0.7-0.2-1.1-0.2
			c-0.9,0-1.6,0.3-2.3,1c-0.6,0.7-0.9,1.5-0.9,2.5c0,1,0.3,1.8,0.9,2.5c0.6,0.7,1.4,1,2.3,1c0.8,0,1.4-0.3,2-0.8
			C217.1,104.2,217.3,104.1,217.4,104.1z"/>
		<path fill="#003571" d="M225.5,105.7c0,0.2-0.1,0.3-0.2,0.5s-0.2,0.2-0.4,0.2s-0.3-0.1-0.4-0.2s-0.2-0.3-0.2-0.5v-3.5h-3.9v3.5
			c0,0.2-0.1,0.3-0.2,0.5s-0.2,0.2-0.4,0.2s-0.3-0.1-0.4-0.2c-0.1-0.1-0.2-0.3-0.2-0.5v-8.3c0-0.2,0.1-0.3,0.2-0.5
			c0.1-0.1,0.2-0.2,0.4-0.2s0.3,0.1,0.4,0.2c0.1,0.1,0.2,0.3,0.2,0.5v3.5h3.9v-3.5c0-0.2,0.1-0.3,0.2-0.5c0.1-0.1,0.2-0.2,0.4-0.2
			s0.3,0.1,0.4,0.2c0.1,0.1,0.2,0.3,0.2,0.5V105.7z"/>
		<path fill="#003571" d="M228.3,105.7c0,0.2-0.1,0.3-0.2,0.5s-0.2,0.2-0.4,0.2s-0.3-0.1-0.4-0.2c-0.1-0.1-0.2-0.3-0.2-0.5v-8.3
			c0-0.2,0.1-0.3,0.2-0.5c0.1-0.1,0.2-0.2,0.4-0.2s0.3,0.1,0.4,0.2c0.1,0.1,0.2,0.3,0.2,0.5V105.7z"/>
		<path fill="#003571" d="M229.9,105.7v-8.3c0-0.1,0-0.2,0-0.2c0-0.1,0.1-0.1,0.1-0.2c0.1-0.1,0.1-0.1,0.2-0.1c0.1,0,0.1,0,0.2,0
			c0.2,0,0.3,0.1,0.4,0.2l4.8,6.9v-6.5c0-0.2,0.1-0.3,0.2-0.5c0.1-0.1,0.2-0.2,0.4-0.2s0.3,0.1,0.4,0.2c0.1,0.1,0.2,0.3,0.2,0.5v8.3
			c0,0.1,0,0.2,0,0.3s-0.1,0.1-0.1,0.2c-0.1,0.1-0.1,0.1-0.2,0.1s-0.1,0-0.2,0c-0.2,0-0.3-0.1-0.4-0.2l-4.8-6.9v6.5
			c0,0.2-0.1,0.3-0.2,0.5c-0.1,0.1-0.2,0.2-0.4,0.2s-0.3-0.1-0.4-0.2S229.9,105.8,229.9,105.7z"/>
		<path fill="#003571" d="M245.6,104.8c0,0.2-0.1,0.3-0.2,0.5c-0.8,0.7-1.7,1.1-2.7,1.1c-1.2,0-2.2-0.5-3.1-1.4s-1.3-2.1-1.3-3.4
			c0-1.3,0.4-2.5,1.3-3.4c0.8-0.9,1.9-1.4,3.1-1.4c1,0,2,0.4,2.8,1.1c0.1,0.1,0.2,0.3,0.2,0.4c0,0.1,0,0.2,0,0.3s-0.1,0.1-0.1,0.2
			c-0.1,0.1-0.1,0.1-0.2,0.1s-0.1,0-0.2,0c-0.1,0-0.3-0.1-0.4-0.2c-0.3-0.2-0.6-0.4-0.9-0.6c-0.3-0.1-0.7-0.2-1.1-0.2
			c-0.9,0-1.6,0.3-2.3,1c-0.6,0.7-0.9,1.5-0.9,2.5c0,1,0.3,1.8,0.9,2.5c0.6,0.7,1.4,1,2.3,1c0.7,0,1.2-0.2,1.8-0.6v-1.9h-1.5
			c-0.2,0-0.3-0.1-0.4-0.2c-0.1-0.1-0.2-0.3-0.2-0.5c0-0.1,0-0.2,0-0.2s0.1-0.1,0.1-0.2c0.1-0.1,0.1-0.1,0.2-0.1c0.1,0,0.1,0,0.2,0
			h2.1c0.1,0,0.1,0,0.2,0.1c0.1,0,0.1,0.1,0.2,0.1c0.1,0.1,0.1,0.1,0.1,0.2c0,0.1,0,0.2,0,0.2V104.8z"/>
	</g>
	<g>
		<defs>
			<rect id="SVGID_3_" x="10.8" y="26" width="261.6" height="90.9"/>
		</defs>
		<clipPath id="SVGID_4_">
			<use xlink:href="#SVGID_3_"  overflow="visible"/>
		</clipPath>
		<path clip-path="url(#SVGID_4_)" fill="#7D1114" d="M169.8,104.3c0,0,0,0.3,0.2,0.6c0,0,0.1,0.1,0.4,0.8c0.4,0.6,0.8,0.3,1.3,0.3
			c0.5,0,0.7,0.1,1.1-0.5c0.4-0.6,0.8-0.4,0.8-0.9V45.4c0-0.9-0.2-1.3-0.6-1.9c-0.4-0.6-0.8-0.4-1.3-0.4c-0.9,0-0.7,0-1.4,0.5
			c-0.6,0.5-0.5,0.9-0.5,1.8V104.3z"/>
		<path clip-path="url(#SVGID_4_)" fill="#7D1114" d="M171.7,46.3c1,0,1.9-0.8,1.9-1.9c0-1-0.8-1.9-1.9-1.9c-1,0-1.9,0.8-1.9,1.9
			C169.8,45.5,170.6,46.3,171.7,46.3"/>
		<path clip-path="url(#SVGID_4_)" fill="#7D1114" d="M171.7,106.5c1,0,1.9-0.8,1.9-1.9c0-1-0.8-1.9-1.9-1.9c-1,0-1.9,0.8-1.9,1.9
			C169.8,105.6,170.6,106.5,171.7,106.5"/>
	</g>
</g>
</svg>
