<svg version="1" xmlns="http://www.w3.org/2000/svg" width="1045.333" height="1045.333" viewBox="0 0 784.000000 784.000000"><path d="M151.5 259.6c-1.9 3-3.5 5.6-3.5 5.9 0 1-12.4 22-13.5 22.7-.5.4-.7.8-.2.8.4 0-.4 1.7-1.7 3.7-1.3 2.1-6.7 11.2-11.9 20.3-5.2 9.1-10.4 18.1-11.6 20-1.1 1.9-2.5 4.4-3.1 5.5-.6 1.1-2.4 4.2-4.1 7-1.6 2.7-3.3 5.8-3.6 6.7-.3 1-.9 1.8-1.4 1.8-.5 0-.9.4-.9 1 0 .5-4 8-9 16.6-4.9 8.5-9 15.9-9 16.5 0 .5-.4.9-1 .9-.5 0-1 .4-1 .9s-2.6 5.4-5.8 10.8c-3.2 5.4-6.1 10.5-6.5 11.3-.4.8-1.6 2.8-2.6 4.5-1.9 3.1-11.4 19.5-15.8 27.5-1.4 2.5-2.9 4.9-3.3 5.5-.5.5-2.3 3.7-4 7-1.8 3.3-3.8 6.7-4.4 7.5-.6.8-2.2 3.5-3.5 6-1.3 2.5-3.1 5.3-3.9 6.2-.8 1-1.1 1.8-.7 1.8.4 0 .1.8-.7 1.7-.8 1-1.8 2.5-2.2 3.3-.3.8-1.5 2.8-2.5 4.5-2.5 4-8.6 14.7-12.4 21.5-1.6 3-3.8 6.7-4.9 8.2-1 1.4-1.8 3-1.8 3.6 0 .6 27.4 1 76.9.9h76.8l8.4-14.5c4.6-8 9.3-16.1 10.4-18.1 1.8-3.1 4-6.8 9.2-15.6.7-1.1 1.6-2.7 2-3.5.4-.8 2.6-4.8 5-8.8 2.4-4 4.3-7.7 4.3-8.2 0-.6.5-1 1-1 .6 0 1-.4 1-1 0-.5 3.1-6.2 6.8-12.7 17.6-30.2 26.2-45.3 26.2-45.9 0-.8 3-3.7 3.4-3.3.4.6 4.2 7.1 6.4 10.9 1.1 1.9 8.3 14.5 16.1 27.9 7.7 13.4 14.1 24.8 14.1 25.3 0 .4.5.8 1 .8.6 0 1 .4 1 1 0 .5 1.9 4.2 4.3 8.2 2.4 4 4.6 8 5 8.8.4.8 2 3.6 3.5 6.1 1.5 2.5 7.7 13.2 13.7 23.8 7.2 12.4 11.5 18.9 12.3 18.6.7-.3 1.1-.1.8.4-.3.5 33.9.8 76.2.9 73.2 0 76.8-.1 78.5-1.9.9-1 1.7-2.5 1.7-3.2 0-.8.6-2 1.4-2.6.7-.6 2.9-4.1 4.7-7.6 1.8-3.6 3.7-6.5 4.1-6.5.4 0 .7-.3.6-.8-.2-.6 4.1-8.5 11.3-20.5 1.6-2.6 2.9-5.2 2.9-5.7 0-.6.3-1 .8-1 .4 0 1.2-1 1.7-2.3 1.5-3.1 5.9-11.1 6.5-11.7.3-.3 1-1.4 1.6-2.5 1.1-2 12.7-22.1 27.6-48 4.2-7.2 8.5-14.8 9.7-17 1.1-2.2 2.1-3.4 2.1-2.7 0 .7 3.4 7.2 7.6 14.5 4.2 7.3 8.8 15.2 10.2 17.7 1.4 2.5 3.5 6.1 4.7 8 1.2 1.9 2.5 4.2 2.8 5 .4.8 1.6 2.8 2.7 4.5 1.1 1.6 2.6 4.3 3.5 6 .9 1.6 2.1 3.9 2.8 5 .6 1.1 3 5.2 5.2 9 2.2 3.9 4.4 7.8 5 8.7.5 1 4.8 8.4 9.5 16.4 4.7 8.1 9.7 16.8 11.2 19.3s3.1 5.3 3.5 6.1c.3.8 1.8 3.3 3.2 5.5 1.4 2.2 3 4.9 3.6 6 1 2 2.1 2 78.3 2.1 42.4.1 77-.1 76.8-.5-.2-.3-3.8-6.5-8-13.8-4.2-7.2-7.6-13.6-7.6-14.2 0-.6-.4-1.1-.9-1.1s-1.4-1.2-2-2.8c-.6-1.5-2.1-4.3-3.3-6.3-1.3-2-6.8-11.5-12.2-21-5.5-9.6-10.2-17.6-10.5-17.9-.4-.3-1.2-1.6-1.8-3-1.5-3.1-4.1-7.6-11.6-20.2-3.1-5.3-5.7-9.9-5.7-10.2 0-.3-1.5-2.9-3.3-5.8-1.9-2.9-3.7-6-4.1-6.8-.8-1.7-3.2-5.8-12.3-21.5-3.5-5.9-6.3-11.1-6.3-11.6s-.4-.9-1-.9c-.5 0-1-.4-1-.9 0-.6-2.9-6-6.5-12.1s-7.6-13-8.9-15.3c-1.9-3.4-9.3-16.3-22.6-39.2-11.4-19.6-16-27.8-16-28.6 0-.5-.4-.9-1-.9-.5 0-1-.4-1-.9s-1.4-3.4-3.2-6.3l-3.2-5.4h-77.3c-81.9.1-79.2 0-79.3 4.3 0 .7-.4 1.3-.9 1.3s-1.4 1.2-2 2.7c-.7 1.6-2.9 5.7-5.1 9.3-3.9 6.6-9.1 15.6-12.6 22-1 1.9-2.2 3.7-2.5 4-.3.3-.8 1-1 1.5-.6 1.6-12.3 22-12.9 22.5-.3.3-1.3 2.1-2.4 4-5.6 10.5-8 14.7-9.1 16-.7.8-1.9 2.8-2.7 4.5-.8 1.6-6.3 11.3-12.2 21.4-5.8 10.1-10.6 19-10.6 19.8 0 .7-.5 1.3-1.2 1.3-.6 0-.9-.3-.5-.6.3-.3-.3-2.1-1.4-4-6.6-11.7-29.8-51.7-30.9-53.4-.6-.8-1.3-2.1-1.7-2.9-.3-.8-3.5-6.4-7.1-12.5-3.6-6.1-7.6-13.1-9-15.6-1.4-2.5-3.4-5.9-4.4-7.5-1-1.7-2.1-3.7-2.5-4.5-.4-.7-2.4-4.2-4.5-7.7-2.1-3.4-3.8-6.5-3.8-6.8 0-.2-1.8-3.4-4-7s-4-7-4-7.5c0-.6-.4-1-.9-1s-1.2-1-1.5-2.3l-.7-2.2-.9 2.2c-1.1 2.7-2 3-1.3.5.4-1.7-2.9-1.8-76.1-1.9h-76.5l-3.6 5.3zm151.8 5.9c-.3.9-.8 1.4-1 1.1-.3-.3-.2-.9.2-1.5.9-1.6 1.5-1.3.8.4zm-2.3 4.9c0 .2-.8 1-1.7 1.7-1.6 1.3-1.7 1.2-.4-.4 1.3-1.6 2.1-2.1 2.1-1.3zm-7.9 12.9c-1 .9-1.1.8-.5-.6.3-1 .9-1.5 1.2-1.2.3.3 0 1.1-.7 1.8zM276.5 312c-.9 1.6-1.8 3-2.1 3-.2 0 .2-1.4 1.1-3 .9-1.7 1.8-3 2.1-3 .2 0-.2 1.3-1.1 3zm-6.5 11.4c0 .2-.8 1-1.7 1.7-1.6 1.3-1.7 1.2-.4-.4 1.3-1.6 2.1-2.1 2.1-1.3zm-8.7 15.1c-.3.9-.8 1.4-1 1.1-.3-.3-.2-.9.2-1.5.9-1.6 1.5-1.3.8.4zm-10.2 17.8c-1 .9-1.1.8-.5-.6.3-1 .9-1.5 1.2-1.2.3.3 0 1.1-.7 1.8zm-6.9 11.6c-.9 1.6-1.8 2.8-2.1 2.6-.4-.5 2.7-5.5 3.4-5.5.2 0-.4 1.3-1.3 2.9zm-10.7 19c-.3.6-1.1 1.1-1.6 1.1s-.4-.6.3-1.4c1.4-1.6 2.4-1.3 1.3.3zm144.8 16.6c-.3.9-.8 1.4-1 1.1-.3-.3-.2-.9.2-1.5.9-1.6 1.5-1.3.8.4zm-4.5 7.5c-.7 1-1.4 1.7-1.7 1.5-.4-.4 1.8-3.5 2.5-3.5.2 0-.1.9-.8 2zm-9 16c-.7 1-1.4 1.7-1.7 1.5-.4-.4 1.8-3.5 2.5-3.5.2 0-.1.9-.8 2zm-7.5 12.5c-.3.9-.8 1.4-1 1.1-.3-.3-.2-.9.2-1.5.9-1.6 1.5-1.3.8.4zm-9.3 16.4c-.5 1.1-1.5 2.3-2.1 2.7-.6.3-.3-.5.6-2 2-3 3-3.5 1.5-.7zm-7 12.1c-.6 1.1-1.3 2-1.6 2-.2 0 0-.9.6-2s1.3-2 1.6-2c.2 0 0 .9-.6 2zm-6.6 11.5c-.9 1.4-1.8 2.5-2.1 2.5-.5 0 .5-1.8 2-3.8 1.7-2.2 1.8-1.3.1 1.3zm-3.3 5.8c-1 .9-1.1.8-.5-.6.3-1 .9-1.5 1.2-1.2.3.3 0 1.1-.7 1.8zm-6.1 10.6c-.5 1.1-1.5 2.3-2.1 2.7-.6.3-.3-.5.6-2 2-3 3-3.5 1.5-.7zM315 513c-.6 1.1-1.3 2-1.6 2-.2 0 0-.9.6-2s1.3-2 1.6-2c.2 0 0 .9-.6 2z"/></svg>