<?xml version="1.0" encoding="UTF-8"?>
<svg width="24px" height="24px" viewBox="0 0 24 24" version="1.1" xmlns="http://www.w3.org/2000/svg" xmlns:xlink="http://www.w3.org/1999/xlink">
    <!-- Generator: Sketch 48.2 (47327) - http://www.bohemiancoding.com/sketch -->
    <title>LinkedIn</title>
    <desc>Created with Sketch.</desc>
    <defs></defs>
    <g id="LinkedIn" stroke="none" stroke-width="1" fill="none" fill-rule="evenodd" transform="translate(-12.000000, -12.000000)">
        <path d="M32.7658696,12 C34.5520212,12 35.9999413,13.4479094 36,15.234048 L36,32.7660107 C36,34.5520906 34.5520799,36 32.765987,36 L15.2340717,35.9998826 C13.4479201,35.9998826 12,34.5519731 12,32.7658346 L12,15.234048 C12,13.4479094 13.4479788,12 15.2340717,12 L32.7658696,12 Z M19.3059968,32.2175915 L19.3059968,21.1286446 L15.6202144,21.1286446 L15.6202144,32.2175915 L19.3059968,32.2175915 Z M17.4633525,19.6138448 C18.7480686,19.6138448 19.5489178,18.7621402 19.5489178,17.6981267 C19.5242307,16.6104135 18.7485623,15.7824085 17.4875458,15.7824085 C16.227023,15.7824085 15.4024742,16.6104135 15.4024742,17.6981267 C15.4024742,18.7621402 16.2023359,19.6138448 17.4386654,19.6138448 L17.4633525,19.6138448 Z M28.9112496,32.2175915 L32.5975258,32.2175915 L32.5975258,25.8581972 C32.5975258,22.4518726 30.7790748,20.8664677 28.3543088,20.8664677 C26.3976101,20.8664677 25.5217122,21.9423311 25.0319203,22.697756 L25.0319203,21.1281509 L21.3461379,21.1281509 C21.3945246,22.1674774 21.3461379,32.2170977 21.3461379,32.2170977 L25.0319203,32.2170977 L25.0319203,26.0240945 C25.0319203,25.6923 25.0556199,25.361493 25.1528871,25.1249907 C25.4200014,24.4623892 26.0263163,23.7765818 27.0444119,23.7765818 C28.3780084,23.7765818 28.9112496,24.7936899 28.9112496,26.2838026 L28.9112496,32.2175915 Z" fill="#9AABB3" fill-rule="nonzero"></path>
    </g>
</svg>