<?xml version="1.0" encoding="UTF-8"?>
<svg width="212px" height="43px" viewBox="0 0 212 43" version="1.1" xmlns="http://www.w3.org/2000/svg" xmlns:xlink="http://www.w3.org/1999/xlink">
    <!-- Generator: Sketch 48.2 (47327) - http://www.bohemiancoding.com/sketch -->
    <title>logo</title>
    <desc>Created with Sketch.</desc>
    <defs></defs>
    <g id="Page-1" stroke="none" stroke-width="1" fill="none" fill-rule="evenodd">
        <g id="logo" fill-rule="nonzero">
            <g id="Logo-Text" transform="translate(0.000000, 25.000000)" fill="#505A62">
                <path d="M8.90198395,10.3855096 C9.03231794,10.6308442 9.15306673,10.8857583 9.26423395,11.1502596 C9.37540117,11.4147609 9.48465008,11.681175 9.59198395,11.9495096 C9.69931782,11.6735082 9.81048338,11.4013443 9.92548395,11.1330096 C10.0404845,10.864675 10.16315,10.6078442 10.293484,10.3625096 L15.215484,1.1510096 C15.2768176,1.0360091 15.340067,0.94401 15.405234,0.8750096 C15.4704009,0.8060093 15.5432335,0.7561764 15.623734,0.7255096 C15.7042344,0.6948428 15.7943168,0.6756763 15.893984,0.6680096 C15.9936511,0.6603429 16.1124833,0.6565096 16.250484,0.6565096 L18.584984,0.6565096 L18.584984,17.2855096 L15.859484,17.2855096 L15.859484,6.5445096 C15.859484,6.3451753 15.8652339,6.1266775 15.876734,5.8890096 C15.888234,5.6513418 15.9054838,5.4098442 15.928484,5.1645096 L10.902984,14.5945096 C10.7879834,14.8091774 10.6384849,14.9759257 10.454484,15.0947596 C10.270483,15.2135936 10.0558185,15.2730096 9.81048395,15.2730096 L9.38498395,15.2730096 C9.13964939,15.2730096 8.92498487,15.2135936 8.74098395,15.0947596 C8.55698303,14.9759257 8.40748453,14.8091774 8.29248395,14.5945096 L3.19798395,5.1300096 C3.22865077,5.3830109 3.24973389,5.6302584 3.26123395,5.8717596 C3.27273401,6.1132608 3.27848395,6.3375086 3.27848395,6.5445096 L3.27848395,17.2855096 L0.552983952,17.2855096 L0.552983952,0.6565096 L2.88748395,0.6565096 C3.02548464,0.6565096 3.14431679,0.6603429 3.24398395,0.6680096 C3.34365112,0.6756763 3.43373355,0.6948428 3.51423395,0.7255096 C3.59473435,0.7561764 3.66948361,0.8060093 3.73848395,0.8750096 C3.8074843,0.94401 3.87265031,1.0360091 3.93398395,1.1510096 L8.90198395,10.3855096 Z M25.206484,5.4865096 L25.206484,17.2855096 L22.365984,17.2855096 L22.365984,5.4865096 L25.206484,5.4865096 Z M25.631984,2.0480096 C25.631984,2.2933442 25.5821511,2.5233419 25.482484,2.7380096 C25.3828168,2.9526774 25.2505681,3.1405088 25.085734,3.3015096 C24.9208998,3.4625104 24.7273184,3.5909258 24.504984,3.6867596 C24.2826495,3.7825934 24.0449852,3.8305096 23.791984,3.8305096 C23.5466494,3.8305096 23.3147351,3.7825934 23.096234,3.6867596 C22.8777329,3.5909258 22.6879848,3.4625104 22.526984,3.3015096 C22.3659832,3.1405088 22.2375678,2.9526774 22.141734,2.7380096 C22.0459001,2.5233419 21.997984,2.2933442 21.997984,2.0480096 C21.997984,1.7950084 22.0459001,1.5573441 22.141734,1.3350096 C22.2375678,1.1126752 22.3659832,0.9210104 22.526984,0.7600096 C22.6879848,0.5990088 22.8777329,0.4705934 23.096234,0.3747596 C23.3147351,0.2789258 23.5466494,0.2310096 23.791984,0.2310096 C24.0449852,0.2310096 24.2826495,0.2789258 24.504984,0.3747596 C24.7273184,0.4705934 24.9208998,0.5990088 25.085734,0.7600096 C25.2505681,0.9210104 25.3828168,1.1126752 25.482484,1.3350096 C25.5821511,1.5573441 25.631984,1.7950084 25.631984,2.0480096 Z M37.106484,7.9820096 C37.0221502,8.0893435 36.9397344,8.173676 36.859234,8.2350096 C36.7787336,8.2963433 36.6618181,8.3270096 36.508484,8.3270096 C36.3628166,8.3270096 36.2209847,8.2829267 36.082984,8.1947596 C35.9449833,8.1065925 35.7801516,8.0069268 35.588484,7.8957596 C35.3968163,7.7845924 35.1687353,7.6849267 34.904234,7.5967596 C34.6397326,7.5085925 34.3119859,7.4645096 33.920984,7.4645096 C33.4226481,7.4645096 32.9856525,7.5545921 32.609984,7.7347596 C32.2343154,7.9149272 31.9219019,8.1736746 31.672734,8.5110096 C31.4235661,8.8483446 31.2376512,9.2565906 31.114984,9.7357596 C30.9923167,10.2149287 30.930984,10.7573399 30.930984,11.3630096 C30.930984,11.9916794 30.9980666,12.5513405 31.132234,13.0420096 C31.2664013,13.5326787 31.4599827,13.944758 31.712984,14.2782596 C31.9659852,14.6117613 32.2726488,14.8647588 32.632984,15.0372596 C32.9933191,15.2097605 33.3996484,15.2960096 33.851984,15.2960096 C34.3043196,15.2960096 34.6703992,15.2404268 34.950234,15.1292596 C35.2300687,15.0180924 35.4658163,14.895427 35.657484,14.7612596 C35.8491516,14.6270923 36.0158999,14.5044268 36.157734,14.3932596 C36.299568,14.2820924 36.4586497,14.2265096 36.634984,14.2265096 C36.8649851,14.2265096 37.0374834,14.3146754 37.152484,14.4910096 L37.968984,15.5260096 C37.6546491,15.8940115 37.3134858,16.2025917 36.945484,16.4517596 C36.5774821,16.7009275 36.1960693,16.9002589 35.801234,17.0497596 C35.4063987,17.1992604 34.9981527,17.304676 34.576484,17.3660096 C34.1548152,17.4273433 33.736986,17.4580096 33.322984,17.4580096 C32.594647,17.4580096 31.9084872,17.3219277 31.264484,17.0497596 C30.6204807,16.7775916 30.058903,16.3808456 29.579734,15.8595096 C29.1005649,15.3381737 28.7210687,14.6999301 28.441234,13.9447596 C28.1613992,13.1895892 28.021484,12.3290145 28.021484,11.3630096 C28.021484,10.496672 28.1460661,9.6935967 28.395234,8.9537596 C28.6444019,8.2139226 29.0104815,7.5737623 29.493484,7.0332596 C29.9764864,6.4927569 30.5744804,6.0691778 31.287484,5.7625096 C32.0004875,5.4558414 32.8208127,5.3025096 33.748484,5.3025096 C34.630155,5.3025096 35.402564,5.4443415 36.065734,5.7280096 C36.7289039,6.0116777 37.3249813,6.418007 37.853984,6.9470096 L37.106484,7.9820096 Z M40.185984,17.2855096 L40.185984,0.1965096 L43.026484,0.1965096 L43.026484,6.7630096 C43.4864863,6.3260074 43.9924812,5.9733443 44.544484,5.7050096 C45.0964867,5.436675 45.7443136,5.3025096 46.487984,5.3025096 C47.1319872,5.3025096 47.7031481,5.4117585 48.201484,5.6302596 C48.6998198,5.8487607 49.1157323,6.1554243 49.449234,6.5502596 C49.7827356,6.9450949 50.0357331,7.4165902 50.208234,7.9647596 C50.3807348,8.512929 50.466984,9.116673 50.466984,9.7760096 L50.466984,17.2855096 L47.626484,17.2855096 L47.626484,9.7760096 C47.626484,9.0553394 47.4597356,8.4975949 47.126234,8.1027596 C46.7927323,7.7079243 46.2924873,7.5105096 45.625484,7.5105096 C45.1348148,7.5105096 44.6748194,7.6216752 44.245484,7.8440096 C43.8161485,8.0663441 43.4098192,8.3691744 43.026484,8.7525096 L43.026484,17.2855096 L40.185984,17.2855096 Z M62.907484,17.2855096 L61.630984,17.2855096 C61.3626493,17.2855096 61.1518181,17.24526 60.998484,17.1647596 C60.8451499,17.0842592 60.730151,16.9213442 60.653484,16.6760096 L60.400484,15.8365096 C60.1014825,16.1048443 59.8082354,16.3405919 59.520734,16.5437596 C59.2332325,16.7469273 58.9361522,16.9175089 58.629484,17.0555096 C58.3228158,17.1935103 57.9969857,17.2970093 57.651984,17.3660096 C57.3069823,17.43501 56.9236528,17.4695096 56.501984,17.4695096 C56.0036482,17.4695096 55.5436528,17.402427 55.121984,17.2682596 C54.7003152,17.1340923 54.3380688,16.9328443 54.035234,16.6645096 C53.7323991,16.396175 53.4966515,16.0626783 53.327984,15.6640096 C53.1593165,15.265341 53.074984,14.8015123 53.074984,14.2725096 C53.074984,13.8278407 53.1918995,13.3889285 53.425734,12.9557596 C53.6595685,12.5225908 54.0486479,12.1315947 54.592984,11.7827596 C55.13732,11.4339245 55.8618128,11.1445108 56.766484,10.9145096 C57.6711552,10.6845085 58.7943106,10.5541764 60.135984,10.5235096 L60.135984,9.8335096 C60.135984,9.043839 59.9692356,8.4592615 59.635734,8.0797596 C59.3022323,7.7002577 58.8173205,7.5105096 58.180984,7.5105096 C57.7209817,7.5105096 57.3376522,7.5641758 57.030984,7.6715096 C56.7243158,7.7788435 56.4579018,7.8995923 56.231734,8.0337596 C56.0055662,8.167927 55.7966516,8.2886758 55.604984,8.3960096 C55.4133164,8.5033435 55.2024851,8.5570096 54.972484,8.5570096 C54.7808164,8.5570096 54.6159847,8.5071768 54.477984,8.4075096 C54.3399833,8.3078425 54.2288177,8.185177 54.144484,8.0395096 L53.626984,7.1310096 C54.9839908,5.8890034 56.6208077,5.2680096 58.537484,5.2680096 C59.2274874,5.2680096 59.8427313,5.3810918 60.383234,5.6072596 C60.9237367,5.8334274 61.3818154,6.1477576 61.757484,6.5502596 C62.1331525,6.9527616 62.418733,7.4338402 62.614234,7.9935096 C62.809735,8.5531791 62.907484,9.1665063 62.907484,9.8335096 L62.907484,17.2855096 Z M57.387484,15.5145096 C57.6788188,15.5145096 57.9471494,15.4876766 58.192484,15.4340096 C58.4378185,15.3803427 58.6697329,15.2998435 58.888234,15.1925096 C59.1067351,15.0851758 59.3175663,14.9529271 59.520734,14.7957596 C59.7239017,14.6385922 59.9289829,14.4526774 60.135984,14.2380096 L60.135984,12.2485096 C59.3079798,12.2868432 58.6160701,12.3577591 58.060234,12.4612596 C57.5043979,12.5647601 57.057819,12.6970088 56.720484,12.8580096 C56.383149,13.0190104 56.143568,13.2068419 56.001734,13.4215096 C55.8598999,13.6361774 55.788984,13.8700084 55.788984,14.1230096 C55.788984,14.6213455 55.9365658,14.9778419 56.231734,15.1925096 C56.5269021,15.4071774 56.9121483,15.5145096 57.387484,15.5145096 Z M70.977984,5.3025096 C71.7216544,5.3025096 72.4058975,5.4213418 73.030734,5.6590096 C73.6555704,5.8966775 74.1941484,6.2435907 74.646484,6.6997596 C75.0988196,7.1559286 75.4514827,7.7155896 75.704484,8.3787596 C75.9574852,9.0419296 76.083984,9.7990054 76.083984,10.6500096 C76.083984,10.8646774 76.0744007,11.0429256 76.055234,11.1847596 C76.0360672,11.3265937 76.0015676,11.4377592 75.951734,11.5182596 C75.9019004,11.59876 75.8348177,11.6562595 75.750484,11.6907596 C75.6661502,11.7252598 75.558818,11.7425096 75.428484,11.7425096 L68.137484,11.7425096 C68.2218177,12.953849 68.5476478,13.8431735 69.114984,14.4105096 C69.6823202,14.9778458 70.433646,15.2615096 71.368984,15.2615096 C71.8289863,15.2615096 72.2257323,15.2078435 72.559234,15.1005096 C72.8927356,14.9931758 73.1840661,14.8743436 73.433234,14.7440096 C73.6824019,14.6136756 73.9008997,14.4948435 74.088734,14.3875096 C74.2765683,14.2801758 74.4586498,14.2265096 74.634984,14.2265096 C74.7499846,14.2265096 74.8496502,14.2495094 74.933984,14.2955096 C75.0183177,14.3415099 75.0911503,14.4066759 75.152484,14.4910096 L75.980484,15.5260096 C75.6661491,15.8940115 75.3134859,16.2025917 74.922484,16.4517596 C74.531482,16.7009275 74.1232361,16.9002589 73.697734,17.0497596 C73.2722319,17.1992604 72.8390695,17.304676 72.398234,17.3660096 C71.9573984,17.4273433 71.5299861,17.4580096 71.115984,17.4580096 C70.2956465,17.4580096 69.5328208,17.3219277 68.827484,17.0497596 C68.1221471,16.7775916 67.5088199,16.3750956 66.987484,15.8422596 C66.466148,15.3094236 66.0559855,14.6500969 65.756984,13.8642596 C65.4579825,13.0784224 65.308484,12.1680148 65.308484,11.1330096 C65.308484,10.3280056 65.438816,9.5709298 65.699484,8.8617596 C65.960152,8.1525894 66.3338982,7.5354289 66.820734,7.0102596 C67.3075697,6.4850903 67.9017305,6.0691778 68.603234,5.7625096 C69.3047375,5.4558414 70.0963129,5.3025096 70.977984,5.3025096 Z M71.035484,7.3380096 C70.2074798,7.3380096 69.559653,7.5718406 69.091984,8.0395096 C68.624315,8.5071786 68.325318,9.1703387 68.194984,10.0290096 L73.530984,10.0290096 C73.530984,9.6610078 73.4811511,9.3140946 73.381484,8.9882596 C73.2818168,8.6624247 73.128485,8.3768442 72.921484,8.1315096 C72.7144829,7.8861751 72.4538189,7.6925937 72.139484,7.5507596 C71.8251491,7.4089256 71.4571528,7.3380096 71.035484,7.3380096 Z M81.819984,0.1965096 L81.819984,17.2855096 L78.979484,17.2855096 L78.979484,0.1965096 L81.819984,0.1965096 Z M94.674484,17.2855096 L93.397984,17.2855096 C93.1296493,17.2855096 92.9188181,17.24526 92.765484,17.1647596 C92.6121499,17.0842592 92.497151,16.9213442 92.420484,16.6760096 L92.167484,15.8365096 C91.8684825,16.1048443 91.5752354,16.3405919 91.287734,16.5437596 C91.0002326,16.7469273 90.7031522,16.9175089 90.396484,17.0555096 C90.0898158,17.1935103 89.7639857,17.2970093 89.418984,17.3660096 C89.0739823,17.43501 88.6906528,17.4695096 88.268984,17.4695096 C87.7706482,17.4695096 87.3106528,17.402427 86.888984,17.2682596 C86.4673152,17.1340923 86.1050688,16.9328443 85.802234,16.6645096 C85.4993991,16.396175 85.2636515,16.0626783 85.094984,15.6640096 C84.9263165,15.265341 84.841984,14.8015123 84.841984,14.2725096 C84.841984,13.8278407 84.9588995,13.3889285 85.192734,12.9557596 C85.4265685,12.5225908 85.8156479,12.1315947 86.359984,11.7827596 C86.90432,11.4339245 87.6288128,11.1445108 88.533484,10.9145096 C89.4381552,10.6845085 90.5613106,10.5541764 91.902984,10.5235096 L91.902984,9.8335096 C91.902984,9.043839 91.7362357,8.4592615 91.402734,8.0797596 C91.0692323,7.7002577 90.5843205,7.5105096 89.947984,7.5105096 C89.4879817,7.5105096 89.1046522,7.5641758 88.797984,7.6715096 C88.4913158,7.7788435 88.2249018,7.8995923 87.998734,8.0337596 C87.7725662,8.167927 87.5636516,8.2886758 87.371984,8.3960096 C87.1803164,8.5033435 86.9694851,8.5570096 86.739484,8.5570096 C86.5478164,8.5570096 86.3829847,8.5071768 86.244984,8.4075096 C86.1069833,8.3078425 85.9958177,8.185177 85.911484,8.0395096 L85.393984,7.1310096 C86.7509908,5.8890034 88.3878077,5.2680096 90.304484,5.2680096 C90.9944874,5.2680096 91.6097313,5.3810918 92.150234,5.6072596 C92.6907367,5.8334274 93.1488154,6.1477576 93.524484,6.5502596 C93.9001525,6.9527616 94.185733,7.4338402 94.381234,7.9935096 C94.576735,8.5531791 94.674484,9.1665063 94.674484,9.8335096 L94.674484,17.2855096 Z M89.154484,15.5145096 C89.4458188,15.5145096 89.7141494,15.4876766 89.959484,15.4340096 C90.2048186,15.3803427 90.4367329,15.2998435 90.655234,15.1925096 C90.8737351,15.0851758 91.0845663,14.9529271 91.287734,14.7957596 C91.4909017,14.6385922 91.695983,14.4526774 91.902984,14.2380096 L91.902984,12.2485096 C91.0749799,12.2868432 90.3830701,12.3577591 89.827234,12.4612596 C89.2713979,12.5647601 88.824819,12.6970088 88.487484,12.8580096 C88.150149,13.0190104 87.910568,13.2068419 87.768734,13.4215096 C87.6269,13.6361774 87.555984,13.8700084 87.555984,14.1230096 C87.555984,14.6213455 87.7035659,14.9778419 87.998734,15.1925096 C88.2939021,15.4071774 88.6791483,15.5145096 89.154484,15.5145096 Z M109.561984,11.3745096 C109.561984,12.3098476 109.446985,13.1531725 109.216984,13.9045096 C108.986983,14.6558467 108.643903,15.296007 108.187734,15.8250096 C107.731565,16.3540123 107.162321,16.7603415 106.479984,17.0440096 C105.797647,17.3276777 105.004155,17.4695096 104.099484,17.4695096 C103.685482,17.4695096 103.279153,17.4445932 102.880484,17.3947596 C102.481815,17.344926 102.063986,17.2663435 101.626984,17.1590096 L101.787984,15.3190096 C101.803317,15.1503421 101.866567,15.0142601 101.977734,14.9107596 C102.088901,14.8072591 102.251816,14.7555096 102.466484,14.7555096 C102.596818,14.7555096 102.7674,14.7823427 102.978234,14.8360096 C103.189068,14.8896766 103.455482,14.9165096 103.777484,14.9165096 C104.214486,14.9165096 104.601649,14.8532603 104.938984,14.7267596 C105.276319,14.600259 105.558066,14.399011 105.784234,14.1230096 C106.010402,13.8470082 106.180983,13.4885952 106.295984,13.0477596 C106.410985,12.6069241 106.468484,12.0721794 106.468484,11.4435096 L106.468484,0.6565096 L109.561984,0.6565096 L109.561984,11.3745096 Z M122.404984,17.2855096 L121.128484,17.2855096 C120.860149,17.2855096 120.649318,17.24526 120.495984,17.1647596 C120.34265,17.0842592 120.227651,16.9213442 120.150984,16.6760096 L119.897984,15.8365096 C119.598983,16.1048443 119.305735,16.3405919 119.018234,16.5437596 C118.730733,16.7469273 118.433652,16.9175089 118.126984,17.0555096 C117.820316,17.1935103 117.494486,17.2970093 117.149484,17.3660096 C116.804482,17.43501 116.421153,17.4695096 115.999484,17.4695096 C115.501148,17.4695096 115.041153,17.402427 114.619484,17.2682596 C114.197815,17.1340923 113.835569,16.9328443 113.532734,16.6645096 C113.229899,16.396175 112.994152,16.0626783 112.825484,15.6640096 C112.656817,15.265341 112.572484,14.8015123 112.572484,14.2725096 C112.572484,13.8278407 112.6894,13.3889285 112.923234,12.9557596 C113.157069,12.5225908 113.546148,12.1315947 114.090484,11.7827596 C114.63482,11.4339245 115.359313,11.1445108 116.263984,10.9145096 C117.168655,10.6845085 118.291811,10.5541764 119.633484,10.5235096 L119.633484,9.8335096 C119.633484,9.043839 119.466736,8.4592615 119.133234,8.0797596 C118.799732,7.7002577 118.314821,7.5105096 117.678484,7.5105096 C117.218482,7.5105096 116.835152,7.5641758 116.528484,7.6715096 C116.221816,7.7788435 115.955402,7.8995923 115.729234,8.0337596 C115.503066,8.167927 115.294152,8.2886758 115.102484,8.3960096 C114.910816,8.5033435 114.699985,8.5570096 114.469984,8.5570096 C114.278316,8.5570096 114.113485,8.5071768 113.975484,8.4075096 C113.837483,8.3078425 113.726318,8.185177 113.641984,8.0395096 L113.124484,7.1310096 C114.481491,5.8890034 116.118308,5.2680096 118.034984,5.2680096 C118.724987,5.2680096 119.340231,5.3810918 119.880734,5.6072596 C120.421237,5.8334274 120.879315,6.1477576 121.254984,6.5502596 C121.630653,6.9527616 121.916233,7.4338402 122.111734,7.9935096 C122.307235,8.5531791 122.404984,9.1665063 122.404984,9.8335096 L122.404984,17.2855096 Z M116.884984,15.5145096 C117.176319,15.5145096 117.444649,15.4876766 117.689984,15.4340096 C117.935319,15.3803427 118.167233,15.2998435 118.385734,15.1925096 C118.604235,15.0851758 118.815066,14.9529271 119.018234,14.7957596 C119.221402,14.6385922 119.426483,14.4526774 119.633484,14.2380096 L119.633484,12.2485096 C118.80548,12.2868432 118.11357,12.3577591 117.557734,12.4612596 C117.001898,12.5647601 116.555319,12.6970088 116.217984,12.8580096 C115.880649,13.0190104 115.641068,13.2068419 115.499234,13.4215096 C115.3574,13.6361774 115.286484,13.8700084 115.286484,14.1230096 C115.286484,14.6213455 115.434066,14.9778419 115.729234,15.1925096 C116.024402,15.4071774 116.409648,15.5145096 116.884984,15.5145096 Z M125.599484,17.2855096 L125.599484,5.4865096 L127.266984,5.4865096 C127.558319,5.4865096 127.761483,5.5401758 127.876484,5.6475096 C127.991485,5.7548435 128.06815,5.9388417 128.106484,6.1995096 L128.278984,7.6255096 C128.700653,6.8971727 129.195148,6.3221784 129.762484,5.9005096 C130.32982,5.4788409 130.966147,5.2680096 131.671484,5.2680096 C132.254154,5.2680096 132.737149,5.402175 133.120484,5.6705096 L132.752484,7.7980096 C132.729484,7.9360103 132.679651,8.0337593 132.602984,8.0912596 C132.526317,8.1487599 132.422818,8.1775096 132.292484,8.1775096 C132.177483,8.1775096 132.020318,8.1506766 131.820984,8.0970096 C131.62165,8.0433427 131.357152,8.0165096 131.027484,8.0165096 C130.437148,8.0165096 129.931153,8.1794247 129.509484,8.5052596 C129.087815,8.8310946 128.731319,9.3083398 128.439984,9.9370096 L128.439984,17.2855096 L125.599484,17.2855096 Z M138.419484,5.4865096 L138.419484,17.2855096 L135.578984,17.2855096 L135.578984,5.4865096 L138.419484,5.4865096 Z M138.844984,2.0480096 C138.844984,2.2933442 138.795151,2.5233419 138.695484,2.7380096 C138.595817,2.9526774 138.463568,3.1405088 138.298734,3.3015096 C138.1339,3.4625104 137.940318,3.5909258 137.717984,3.6867596 C137.49565,3.7825934 137.257985,3.8305096 137.004984,3.8305096 C136.759649,3.8305096 136.527735,3.7825934 136.309234,3.6867596 C136.090733,3.5909258 135.900985,3.4625104 135.739984,3.3015096 C135.578983,3.1405088 135.450568,2.9526774 135.354734,2.7380096 C135.2589,2.5233419 135.210984,2.2933442 135.210984,2.0480096 C135.210984,1.7950084 135.2589,1.5573441 135.354734,1.3350096 C135.450568,1.1126752 135.578983,0.9210104 135.739984,0.7600096 C135.900985,0.5990088 136.090733,0.4705934 136.309234,0.3747596 C136.527735,0.2789258 136.759649,0.2310096 137.004984,0.2310096 C137.257985,0.2310096 137.49565,0.2789258 137.717984,0.3747596 C137.940318,0.4705934 138.1339,0.5990088 138.298734,0.7600096 C138.463568,0.9210104 138.595817,1.1126752 138.695484,1.3350096 C138.795151,1.5573441 138.844984,1.7950084 138.844984,2.0480096 Z M145.903484,17.4695096 C144.883812,17.4695096 144.097987,17.1800959 143.545984,16.6012596 C142.993981,16.0224234 142.717984,15.2231814 142.717984,14.2035096 L142.717984,7.6140096 L141.521984,7.6140096 C141.36865,7.6140096 141.236401,7.5641768 141.125234,7.4645096 C141.014067,7.3648425 140.958484,7.215344 140.958484,7.0160096 L140.958484,5.8890096 L142.855984,5.5785096 L143.453984,2.3585096 C143.484651,2.2051755 143.555567,2.0863434 143.666734,2.0020096 C143.777901,1.9176759 143.917817,1.8755096 144.086484,1.8755096 L145.558484,1.8755096 L145.558484,5.5900096 L148.663484,5.5900096 L148.663484,7.6140096 L145.558484,7.6140096 L145.558484,14.0080096 C145.558484,14.3760115 145.650483,14.6635086 145.834484,14.8705096 C146.018485,15.0775107 146.263816,15.1810096 146.570484,15.1810096 C146.746818,15.1810096 146.8944,15.1599265 147.013234,15.1177596 C147.132068,15.0755927 147.235567,15.0315099 147.323734,14.9855096 C147.411901,14.9395094 147.490484,14.8954265 147.559484,14.8532596 C147.628484,14.8110927 147.697484,14.7900096 147.766484,14.7900096 C147.850818,14.7900096 147.919817,14.8110927 147.973484,14.8532596 C148.027151,14.8954265 148.08465,14.9586759 148.145984,15.0430096 L148.996984,16.4230096 C148.582982,16.7680114 148.107653,17.0286754 147.570984,17.2050096 C147.034315,17.3813438 146.478487,17.4695096 145.903484,17.4695096 Z M159.861984,6.6595096 C159.861984,6.858844 159.825568,7.0524254 159.752734,7.2402596 C159.6799,7.4280939 159.593651,7.5871756 159.493984,7.7175096 L153.881984,15.1005096 L159.700984,15.1005096 L159.700984,17.2855096 L150.581484,17.2855096 L150.581484,16.1010096 C150.581484,15.9706756 150.61215,15.8154272 150.673484,15.6352596 C150.734818,15.4550921 150.83065,15.2845104 150.960984,15.1235096 L156.618984,7.6600096 L150.914984,7.6600096 L150.914984,5.4865096 L159.861984,5.4865096 L159.861984,6.6595096 Z" id="logoText"></path>
            </g>
            <g id="Logo" transform="translate(163.000000, 0.000000)">
                <path d="M19.2760263,0.468316584 C19.3044456,0.443697785 19.3330303,0.419004224 19.3617806,0.3942359 L24.1875986,8.7529615 L14.5358511,8.7529615 C14.5431408,8.71543492 14.5504463,8.67809088 14.5577674,8.64092937 L14.4930884,8.7529615 L9.66715897,0.3942359 L19.318795,0.3942359 L19.2760263,0.468316584 Z" id="Combined-Shape" fill="#CA008C"></path>
                <polygon id="Fill-2" fill="#EFB500" points="9.66715897 0.3942359 4.84134093 8.7529615 14.4930884 8.7529615"></polygon>
                <polygon id="Combined-Shape" fill="#CA008C" points="9.66718126 17.1115311 4.84136322 8.752917 14.4929993 8.752917 9.66720054 17.1114977 0.0154671798 17.1114977 4.84139666 8.7528835 9.66721469 17.1114977"></polygon>
                <path d="M24.1103751,8.81254605 C24.1359778,8.79269374 24.161719,8.77280622 24.1875986,8.7528835 L29.0134167,17.1115311 L19.3617806,17.1114977 C19.370716,17.0710546 19.3796524,17.0308154 19.3885898,16.9907801 L19.318873,17.1115311 L14.493055,8.7528835 L24.1448025,8.752917 L24.1103751,8.81254605 Z" id="Combined-Shape" fill="#0578DF"></path>
                <polygon id="Combined-Shape" fill="#0578DF" points="29.0134724 0.3942359 38.6652199 0.3942359 33.8392904 8.7529615 24.1875429 8.7529615 29.0134724 0.3942359"></polygon>
                <polygon id="Fill-9" fill="#CA008C" points="38.6651642 0.3942359 33.8392347 8.7529615 43.4909822 8.7529615"></polygon>
                <polygon id="Fill-11" fill="#EFB500" points="24.1875763 8.752917 29.0135058 17.1115311 33.8393238 8.752917"></polygon>
                <polygon id="Combined-Shape" fill="#EFB500" points="38.6651642 17.1114977 43.4909822 8.7528835 48.3169117 17.1114977 38.6651783 17.1114977 33.8392681 8.752917 43.4910156 8.752917 38.6651976 17.1115311"></polygon>
            </g>
        </g>
    </g>
</svg>