<?xml version="1.0"?>
<svg xmlns="http://www.w3.org/2000/svg" xmlns:xlink="http://www.w3.org/1999/xlink" version="1.1" id="Layer_1" x="0px" y="0px" viewBox="0 0 511.997 511.997" style="enable-background:new 0 0 511.997 511.997;" xml:space="preserve" width="512px" height="512px"><g><g>
	<path d="M470.908,4.999c-3.871-6.054-11.644-4.975-40.457-4.842c-17.287,0.083-34.047-0.363-42.514,0.106   c-7.604,0.419-13.085,4.302-17.461,9.671l-14.164,25.097l-61.528,109.045c-31.234,54.735-62.631,109.457-90.964,161.204   l85.341,154.877l23.83,43.248c2.469,4.273,5.1,4.919,7.776,5.744c12.36,3.806,30.423,2.699,49.953,2.699   c16.585,0,38.143,0.3,41.698-7.441c1.777-3.873,0.221-9.071-2.249-14.29c0,0-13.658-24.632-31.555-57.161   c8.31,15.021,16.679,30.117,25.101,45.327l-94.811-173.8c2.137,4.067,4.297,8.12,6.449,12.179c-2.3-4.319-4.462-8.4-6.449-12.179   l71.787-127.65c24.9-43.814,49.867-87.726,74.328-132.169l0.092-0.167l0.024-0.037c-0.007,0.01-0.012,0.02-0.017,0.027   l16.653-29.614C474.051,10.16,472.654,7.737,470.908,4.999z" data-original="#3A665B" class="active-path" data-old_color="#9aabb3" fill="#9aabb3"/>
	<path d="M403.74,478.333c-0.009-0.017-0.017-0.029-0.026-0.046l6.454,11.833   C408.218,485.997,405.686,481.856,403.74,478.333z" data-original="#3A665B" class="active-path" data-old_color="#9aabb3" fill="#9aabb3"/>
	<path d="M178.524,126.693c-6.253-10.893-10.978-25.094-25.283-25.288c-25.285,0-50.58,0-75.863,0   c-4.139,0.593-7.85,1.634-8.693,5.531c-1.353,8.212,5.64,19.488,9.494,26.087c8.966,15.397,40.529,65.566,40.287,71.111   c-0.157,3.718-49.61,88.145-71.107,126.432c-3.198,5.684-10.07,15.927-7.909,20.546c2.261,4.829,6.751,6.63,9.478,6.323   c25.551,0,51.106,0,76.66,0c15.66-1.907,16.355-10.189,30.807-36.353c22.124-40.05,45.712-80.742,66.383-117.739   C210.002,179.602,193.015,151.937,178.524,126.693z" data-original="#3A665B" class="active-path" data-old_color="#9aabb3" fill="#9aabb3"/>
</g></g> </svg>
